<svg xmlns="http://www.w3.org/2000/svg" viewBox="0 0 392.37 588.56"><defs><style>.cls-1{fill:#fff;}.cls-2{fill:#010101;}.cls-3{fill:#3467ab;}.cls-4{fill:#fceabf;}.cls-5{fill:#ba6729;}.cls-6{fill:#e7ab23;}.cls-7{fill:#edbb45;}.cls-8{fill:#020201;}.cls-9{fill:#050402;}.cls-10{fill:#060504;}.cls-11{fill:#060503;}.cls-12{fill:#abbbbb;}</style></defs><g id="Layer_2" data-name="Layer 2"><g id="Layer_1-2" data-name="Layer 1"><path class="cls-1" d="M392.37,523.93v64.63H0V0H392.37V132.21c-2.35,2-5.23,1.56-7.95,1.57q-38.64,0-77.28,0-147.69,0-295.39,0c-2.73,0-5.53-.37-9.18,1.22V521c3.81,1.85,6.79,1.33,9.68,1.33q185.1,0,370.21.06C385.81,522.37,389.36,521.56,392.37,523.93Z"/><path class="cls-2" d="M392.37,523.93H1.5c-.79-4.3-1.13-373.68-.34-391.72H392.37Z"/><path class="cls-2" d="M68.49,126.33v-3.82l3.52-.17c1-1.06-.07-2.46.78-3.84h3.53l.67.43a4.91,4.91,0,0,0,4.21,2c8.57.11,17.14.17,25.71,0a4.42,4.42,0,0,0,4-2.22c3.67-3.22,3.88-4.05,2.42-10-3.68-1.21-7.13-1.29-9.81,2.33a3.43,3.43,0,0,1-3.89-.3c-1.63-2.56-1.49-5.17-.28-7.84a3.9,3.9,0,0,1,1.55-1.07c2.38-.76,4.84-.57,7.28-.57q89.54,0,179.06,0a26.4,26.4,0,0,1,6.81.45,4.77,4.77,0,0,1,1.65.91,7.75,7.75,0,0,1,.06,7.93,3.31,3.31,0,0,1-3.87.58c-2.68-3.5-6.14-3.63-10.09-2.49-1.12,4-1.51,7.49,2.47,10,1.11,2,3,2.31,5,2.33q12.15.12,24.3,0c1.83,0,3.55-.39,4.69-2,.22-.15.45-.29.68-.42h3.81c.06,1.34.12,2.42.17,3.51,1.06,1,2.46-.06,3.84.78v3.54c-1.67,1.68-3.86,1.53-5.94,1.54q-17.52.1-35.05,0c-2.11,0-4.25,0-6-1.55a19.68,19.68,0,0,0-3.92-3.92c-1.88-2.2-1.43-4.89-1.55-7.47-.08-1.93.15-3.91-1.52-6.59-50-.08-100.44-.08-150.45,0-2.81,5,0,10.13-3,14.06a19.42,19.42,0,0,0-3.92,3.92c-1.72,1.55-3.86,1.54-6,1.55q-17.53.08-35,0C72.36,127.86,70.17,128,68.49,126.33Z"/><path class="cls-2" d="M99.81,63.65H295.5a3.27,3.27,0,0,1,.13,4.21,5,5,0,0,1-1.67.85,25.85,25.85,0,0,1-6.33.42q-89.92,0-179.84,0a28.54,28.54,0,0,1-6.33-.36,4.87,4.87,0,0,1-1.7-.82A3.23,3.23,0,0,1,99.81,63.65Z"/><path class="cls-3" d="M119.38,122.41V107.24c4.39-.75,138.32-1,156.55-.33v15.5h-3.79c0-1.87-.1-3.76-.12-5.66s0-3.87,0-5.78c-5.21-.42-143.52-.42-148.71,0v11.11C121.94,122.75,120.63,122.24,119.38,122.41Z"/><path class="cls-2" d="M68.49,87.16H92c2.73-2,2.29-5,2.51-7.89.3-3.91-1.1-8,1.4-11.7a2.87,2.87,0,0,1,3.92,0A6.33,6.33,0,0,1,101.19,72c.33,8.45.11,16.89.13,25.34,0,2-.09,3.93-1.51,5.51a3.11,3.11,0,0,1-4,.17c-2.4-2.84-.44-6.69-2.4-10.23-5.65.52-11.85-2.74-17.1,2.48a3.22,3.22,0,0,1-4-.26,19.11,19.11,0,0,0-3.92-3.91A2.87,2.87,0,0,1,68.49,87.16Z"/><path class="cls-2" d="M303.33,87.16h23.48a2.85,2.85,0,0,1,0,3.92A19.32,19.32,0,0,0,322.9,95a3.23,3.23,0,0,1-3.94.27c-1.73-2.7-4.44-2.92-7.25-2.79-3.34.15-6.75-.47-9.87.55-2,3.24,0,7.12-2.37,10a3.11,3.11,0,0,1-4-.16,7.06,7.06,0,0,1-1.49-5c0-8.61-.22-17.21.1-25.82a6.26,6.26,0,0,1,1.39-4.42,2.87,2.87,0,0,1,3.92,0c2.5,3.65,1.09,7.79,1.4,11.7C301,82.13,300.6,85.13,303.33,87.16Z"/><path class="cls-3" d="M279.85,126.33h50.43c.8,1.13.41,2.38.32,3.76H280.09C279.52,128.88,280,127.58,279.85,126.33Z"/><path class="cls-3" d="M68.49,126.33h47v3.41a2.65,2.65,0,0,1-.33.34.84.84,0,0,1-.42.16H65c-.83-1.12-.4-2.37-.34-3.66C65.94,126,67.25,126.5,68.49,126.33Z"/><path class="cls-3" d="M303.33,87.16h-3.85c-.13-6.52,0-13.06-.06-19.59h3.85C303.4,74.09,303.3,80.63,303.33,87.16Z"/><path class="cls-3" d="M95.89,67.57V87.16H92V67.57Z"/><path class="cls-2" d="M311.16,106.74v3.92l-.65.54a3,3,0,0,1-3.81-1,8,8,0,0,1,.29-7.55,3.38,3.38,0,0,1,4.17,0A3,3,0,0,1,311.16,106.74Z"/><path class="cls-2" d="M84.15,110.66v-3.92a3,3,0,0,1-.05-4,3.41,3.41,0,0,1,4.15-.1c1.58,2.45,1.39,5,.4,7.58a3,3,0,0,1-3.84,1Z"/><path class="cls-3" d="M319,95h3.91v3.92H319l-.46-.44a3.26,3.26,0,0,1,0-3Z"/><path class="cls-3" d="M80.24,102.83H76.32V98.91l.44-.46a3.78,3.78,0,0,1,3.12-.12,2.32,2.32,0,0,1,.92.89,3.75,3.75,0,0,1-.09,3.16Z"/><path class="cls-3" d="M319,98.91v3.92h-3.92l-.48-.49a3.64,3.64,0,0,1,.05-3.32,2.89,2.89,0,0,1,1.1-.83A3.08,3.08,0,0,1,319,98.91Z"/><path class="cls-3" d="M84.15,102.83v3.91H80.24v-3.91a2.82,2.82,0,0,1,3.38-.51C83.8,102.48,84,102.66,84.15,102.83Z"/><path class="cls-3" d="M311.16,106.74v-3.91l.53-.51a2.82,2.82,0,0,1,3.38.51v3.91Z"/><path class="cls-2" d="M80.24,114.58v-3.92h3.91a2.79,2.79,0,0,1-3.31,4.45Z"/><path class="cls-2" d="M311.16,110.66h3.91v3.92l-.6.53a3,3,0,0,1-3.67-.73A3,3,0,0,1,311.16,110.66Z"/><path class="cls-2" d="M76.32,118.5v-3.92h3.92a3.12,3.12,0,0,1,.26,3.78A3.07,3.07,0,0,1,76.32,118.5Z"/><path class="cls-2" d="M315.07,114.58H319v3.92a2.77,2.77,0,1,1-3.92-3.92Z"/><circle class="cls-3" cx="117.42" cy="124.37" r="2.77"/><circle class="cls-3" cx="277.89" cy="124.37" r="2.77"/><path class="cls-3" d="M99.81,67.57H95.89V63.65h3.92Z"/><path class="cls-3" d="M299.42,67.57H295.5V63.65h3.92Z"/><path class="cls-3" d="M68.49,87.16v3.92H65.06c-1.11-1.1,0-2.42-.64-3.53C66,86.83,67.25,87.33,68.49,87.16Z"/><path class="cls-3" d="M326.81,91.08V87.16h3.44c1.11,1.09,0,2.41.63,3.52C329.36,91.4,328.06,90.91,326.81,91.08Z"/><circle class="cls-3" cx="70.45" cy="93.03" r="2.77"/><circle class="cls-3" cx="324.86" cy="93.03" r="2.77"/><path class="cls-3" d="M72.41,95h3.91l.51.53a2.84,2.84,0,0,1-.51,3.39H72.41Z"/><path class="cls-4" d="M8.81,516.09H5.38c-.76-4.54-1.09-356.26-.34-375.8,1.2-.59,2.52-.07,3.77-.25l.47.41a5,5,0,0,0,3,2.83,3,3,0,0,1,.93.84,5.42,5.42,0,0,0,3.43,3.4,3,3,0,0,1,.74,1.24,3.35,3.35,0,0,1-1.16,3.55c-1.26.8-2.74.77-4.11,1.13-1.3.51-1.38,1.69-1.54,2.82a41,41,0,0,0-.22,5.86q0,165.92,0,331.82c0,2.94-1.07,6.24,1.63,8.73,1.35.37,2.8.33,4,1.05a3.3,3.3,0,0,1,.76,4.71c-1.41.87-3.06,1.5-3.51,3.39a2.77,2.77,0,0,1-.88.92,5.39,5.39,0,0,0-3.17,2.93Z"/><path class="cls-4" d="M8.81,140v-3.43c4.53-.76,356-1.09,375.49-.34.59,1.2.07,2.52.25,3.77l-.42.48a4.93,4.93,0,0,0-2.82,3,2.89,2.89,0,0,1-.84.93,5.46,5.46,0,0,0-3.4,3.44,3.09,3.09,0,0,1-1.24.75,3.38,3.38,0,0,1-3.55-1.17c-.79-1.26-.77-2.74-1.12-4.12-.63-1.52-2.05-1.42-3.31-1.59a44,44,0,0,0-5.86-.17q-165.45,0-330.89.07c-3,0-6.55-1.3-9,1.93-.29,1.47-.3,3-1.36,4.26a3,3,0,0,1-4.14,0A19.32,19.32,0,0,0,12.72,144,19.63,19.63,0,0,0,8.81,140Z"/><path class="cls-4" d="M384.55,516.09v3.43c-4.54.76-356,1.09-375.49.34-.6-1.2-.08-2.52-.25-3.77a19.37,19.37,0,0,0,3.91-3.92,19.07,19.07,0,0,0,3.91-3.91,3,3,0,0,1,4.12,0c1.07,1.23,1.08,2.8,1.38,4.27.56,1.88,2.22,1.67,3.61,1.85a45.78,45.78,0,0,0,5.86.15q165.17,0,330.33,0c3.11,0,6.52,1,9.2-1.63.37-1.35.33-2.81,1.05-4.06a3.29,3.29,0,0,1,3.45-1.35,3.55,3.55,0,0,1,1.26.59c.87,1.41,1.5,3.06,3.38,3.51a2.73,2.73,0,0,1,.93.89,5.36,5.36,0,0,0,2.93,3.17Z"/><path class="cls-4" d="M384.55,140H388c.76,4.54,1.09,356.26.34,375.8-1.2.59-2.51.07-3.76.25a19.68,19.68,0,0,0-3.92-3.92,19.58,19.58,0,0,0-3.91-3.91,3,3,0,0,1,0-4.12c1.23-1.07,2.8-1.09,4.27-1.39,1.64-.44,1.63-1.84,1.8-3.12a44.24,44.24,0,0,0,.19-5.87q0-165.7-.06-331.4c0-3,1.29-6.56-1.93-9-1.47-.3-3-.31-4.26-1.37a3,3,0,0,1,0-4.14,19.32,19.32,0,0,0,3.91-3.91A19.68,19.68,0,0,0,384.55,140Z"/><path class="cls-4" d="M295.5,71.49v31.34H99.81V71.49a3.09,3.09,0,0,1,4.32.11c2.07,4.52,1.3,9.36,1,14-.53,8.22,4.16,11.93,11.59,11.9q80.91-.32,161.83,0c7.53,0,12.14-3.76,11.62-11.86-.29-4.62-1-9.46,1-14C292.56,70.3,294,70.42,295.5,71.49Z"/><path class="cls-4" d="M76.32,118.5h3.92v-3.92h3.91l.65.43c1.37,2,3.43,2.1,5.55,2.12,4.32,0,8.64,0,13,0,1.3,0,2.59,0,3.88.06a8.31,8.31,0,0,1,3.81.72c.19.18.37.37.56.56v3.44a2.72,2.72,0,0,1-.35.32.82.82,0,0,1-.42.15H76.64C76,121.06,76.5,119.75,76.32,118.5Z"/><path class="cls-4" d="M315.07,114.58v3.92H319v3.44a2.72,2.72,0,0,1-.35.32.82.82,0,0,1-.42.15H284.08c-.66-1.35-.14-2.66-.32-3.91l.56-.54a8.44,8.44,0,0,1,3.77-.73c1.29-.07,2.58,0,3.87-.07,4.33-.07,8.66,0,13,0,2.13,0,4.2-.13,5.57-2.12.21-.15.43-.28.65-.42Z"/><path class="cls-5" d="M103.72,110.66V107c1.8-.47,3.7-.19,5.56-.24s3.84,0,6,0V118.5h-3.7c-1.08-1.16-1.81-2.69-3.48-3.21a3.13,3.13,0,0,1-.95-.86,5.37,5.37,0,0,0-3-3.26Z"/><path class="cls-5" d="M283.76,118.5H280.1c-.48-1.8-.2-3.7-.24-5.57s0-3.85,0-6h11.74v3.71c-.15.16-.29.33-.43.49a5,5,0,0,0-2.89,3.16,3,3,0,0,1-.9.91C285.68,115.77,284.85,117.27,283.76,118.5Z"/><path class="cls-5" d="M95.89,102.83h3.92v7.83l-.66.55c-4.58-.27-5.22-1.57-3.85-7.76C95.49,103.24,95.69,103,95.89,102.83Z"/><path class="cls-5" d="M295.5,102.83h3.92l.58.62c1.37,6.19.73,7.49-3.84,7.76l-.66-.55Z"/><path class="cls-5" d="M99.81,110.66h3.91a3.2,3.2,0,0,1,.43,3.78,2.64,2.64,0,0,1-1.36.91C99.18,115.45,98.06,114,99.81,110.66Z"/><path class="cls-5" d="M291.59,110.66h3.91c1.73,3.25.68,4.77-2.92,4.71a2.8,2.8,0,0,1-1.39-.87A3.2,3.2,0,0,1,291.59,110.66Z"/><path class="cls-5" d="M295.5,71.49h-3.91c-1.88,1.68-4.22,1.57-6.48,1.57q-87.45,0-174.91,0c-2.27,0-4.6.11-6.48-1.57H99.81V67.57H295.5Z"/><path class="cls-5" d="M76.32,95V91.22c6.41-.31,12.83,0,19.57-.17v11.78a3.21,3.21,0,0,1-3.7.49,2.71,2.71,0,0,1-1-1.17c-.72-1.57-.21-3.5-1.55-5.12-3-1.41-6.39-.4-9.65-.73A5.35,5.35,0,0,1,76.32,95Z"/><path class="cls-5" d="M299.42,102.83V91.26c6.4-.41,12.81-.07,19.23-.21.67,1.38.16,2.69.34,3.94a5.41,5.41,0,0,1-3.66,1.3c-3.2.28-6.5-.57-9.52.6-1.57,1.52-1,3.55-1.66,5.17a2.93,2.93,0,0,1-1,1.23A3.22,3.22,0,0,1,299.42,102.83Z"/><path class="cls-6" d="M303.33,102.83V95h11.74a2.85,2.85,0,0,1,0,3.92,19.37,19.37,0,0,0-3.91,3.92h-3.91C305.94,103.8,304.64,104,303.33,102.83Z"/><path class="cls-4" d="M303.33,102.83h3.92v7.83l-.73.56C301.74,110.87,300.81,108.43,303.33,102.83Z"/><path class="cls-4" d="M311.16,110.66v3.92a2.77,2.77,0,1,1-3.91-3.92Z"/><path class="cls-6" d="M80.24,95H92v7.84c-1.31,1.19-2.61,1-3.92,0H84.15a19.37,19.37,0,0,0-3.91-3.92A2.85,2.85,0,0,1,80.24,95Z"/><path class="cls-4" d="M88.06,102.83H92c2.52,5.6,1.59,8-3.19,8.4l-.73-.57Z"/><path class="cls-4" d="M84.15,114.58v-3.92h3.91a3.14,3.14,0,0,1,.28,3.77A3.07,3.07,0,0,1,84.15,114.58Z"/><circle class="cls-2" cx="317.03" cy="96.95" r="2.77"/><path class="cls-2" d="M80.24,98.91h3.91v3.92H80.24Z"/><circle class="cls-2" cx="78.28" cy="96.95" r="2.77"/><path class="cls-2" d="M311.16,102.83V98.91h3.91v3.92Z"/><path class="cls-7" d="M12.72,504.34H9.3C8.53,499.81,8.21,171.53,9,152c1.2-.59,2.52-.07,3.77-.25A5.41,5.41,0,0,1,14,155.56c.06,1.33.07,2.66,0,4s0,2.63,0,3.94,0,2.61,0,3.92,0,2.61,0,3.92,0,2.61,0,3.92,0,2.61,0,3.91,0,2.61,0,3.92,0,2.61,0,3.92,0,2.61,0,3.91,0,2.62,0,3.92,0,2.61,0,3.92,0,2.61,0,3.92,0,2.61,0,3.91,0,2.61,0,3.92,0,2.61,0,3.92,0,2.61,0,3.91,0,2.62,0,3.92,0,2.61,0,3.92,0,2.61,0,3.92,0,2.61,0,3.91,0,2.61,0,3.92,0,2.61,0,3.92,0,2.61,0,3.91,0,2.62,0,3.92,0,2.61,0,3.92,0,2.61,0,3.92,0,2.61,0,3.91,0,2.62,0,3.92,0,2.61,0,3.92,0,2.61,0,3.92,0,2.61,0,3.91,0,2.61,0,3.92,0,2.61,0,3.92,0,2.61,0,3.91,0,2.62,0,3.92,0,2.61,0,3.92,0,2.61,0,3.92,0,2.61,0,3.91,0,2.62,0,3.92,0,2.62,0,3.93,0,2.63,0,3.95,0,2.66,0,4,0,2.7,0,4c.06,2.45,0,4.9,0,7.35,0,1.34.06,2.69,0,4s0,2.66,0,4,0,2.63,0,3.95,0,2.62,0,3.93,0,2.61,0,3.92,0,2.61,0,3.92,0,2.61,0,3.91,0,2.62,0,3.92,0,2.61,0,3.92,0,2.61,0,3.92,0,2.61,0,3.91,0,2.61,0,3.92,0,2.61,0,3.92,0,2.61,0,3.91,0,2.62,0,3.92,0,2.61,0,3.92,0,2.61,0,3.92,0,2.61,0,3.91,0,2.61,0,3.92,0,2.61,0,3.92,0,2.61,0,3.91,0,2.62,0,3.92,0,2.61,0,3.92,0,2.61,0,3.92,0,2.61,0,3.91,0,2.62,0,3.92,0,2.61,0,3.92,0,2.61,0,3.92,0,2.61,0,3.91,0,2.61,0,3.92,0,2.61,0,3.92,0,2.61,0,3.91,0,2.62,0,3.92,0,2.61,0,3.92,0,2.61,0,3.92,0,2.61,0,3.91,0,2.61,0,3.92,0,2.61,0,3.92,0,2.61,0,3.91,0,2.62,0,3.93,0,2.61,0,3.92,0,2.64,0,4,0,2.68,0,4A5.44,5.44,0,0,1,12.72,504.34Z"/><circle class="cls-2" cx="10.76" cy="142" r="2.77"/><circle class="cls-2" cx="14.68" cy="145.92" r="2.77"/><path class="cls-2" d="M16.63,147.87h3.92l.5.54a3.18,3.18,0,0,1-.39,3.49,3.16,3.16,0,0,1-3.49.41l-.54-.52Z"/><path class="cls-5" d="M12.72,155.71v-3.92h3.91a3,3,0,0,1,.1,4A3,3,0,0,1,12.72,155.71Z"/><path class="cls-5" d="M12.72,504.34v-3.92a3,3,0,0,1,3.71-.36,3,3,0,0,1,.74,3.68l-.54.6Z"/><path class="cls-2" d="M20.55,508.26H16.63v-3.92a3,3,0,0,1,3.72-.36,3,3,0,0,1,.73,3.68Z"/><circle class="cls-2" cx="14.68" cy="510.22" r="2.77"/><circle class="cls-2" cx="10.76" cy="514.13" r="2.77"/><path class="cls-7" d="M20.55,144v-3.43c4.53-.76,332.53-1.09,352-.34.6,1.2.08,2.52.25,3.77a5.42,5.42,0,0,1-3.76,1.28q-2,.09-4,0t-3.93,0c-1.31,0-2.62,0-3.92,0s-2.61,0-3.92,0-2.61,0-3.91,0-2.61,0-3.91,0-2.61,0-3.92,0-2.61,0-3.91,0-2.61,0-3.92,0-2.61,0-3.91,0-2.61,0-3.91,0-2.61,0-3.92,0-2.61,0-3.91,0-2.61,0-3.92,0-2.6,0-3.91,0-2.61,0-3.91,0-2.61,0-3.92,0-2.61,0-3.91,0-2.61,0-3.92,0-2.6,0-3.91,0-2.61,0-3.91,0-2.61,0-3.92,0-2.61,0-3.91,0-2.61,0-3.91,0-2.61,0-3.92,0-2.61,0-3.91,0-2.61,0-3.92,0-2.61,0-3.91,0-2.61,0-3.91,0-2.61,0-3.92,0-2.61,0-3.91,0-2.61,0-3.92,0-2.61,0-3.91,0-2.61,0-3.91,0-2.61,0-3.92,0-2.61,0-3.91,0-2.61,0-3.92,0-2.61,0-3.91,0-2.61,0-3.92,0-2.61,0-3.92,0-2.63,0-4,0-2.66,0-4,0-2.69,0-4,0q-3.68.08-7.34,0c-1.35,0-2.69.06-4,0s-2.66,0-4,0-2.63,0-3.94,0-2.62,0-3.93,0-2.61,0-3.92,0-2.61,0-3.91,0-2.61,0-3.92,0-2.6,0-3.91,0-2.61,0-3.91,0-2.61,0-3.92,0-2.61,0-3.91,0-2.61,0-3.92,0-2.6,0-3.91,0-2.61,0-3.91,0-2.61,0-3.92,0-2.61,0-3.91,0-2.61,0-3.92,0-2.6,0-3.91,0-2.61,0-3.91,0-2.61,0-3.92,0-2.61,0-3.91,0-2.61,0-3.91,0-2.61,0-3.92,0-2.61,0-3.91,0-2.61,0-3.92,0-2.61,0-3.91,0-2.61,0-3.91,0-2.61,0-3.92,0-2.61,0-3.91,0-2.61,0-3.92,0-2.61,0-3.91,0-2.61,0-3.91,0-2.61,0-3.92,0-2.61,0-3.91,0-2.61,0-3.92,0-2.61,0-3.91,0-2.61,0-3.91,0-2.61,0-3.92,0-2.61,0-3.91,0-2.61,0-3.92,0-2.62,0-3.93,0-2.63,0-3.95,0-2.68,0-4,0A5.42,5.42,0,0,1,20.55,144Z"/><circle class="cls-2" cx="382.59" cy="142" r="2.77"/><path class="cls-5" d="M20.55,144h3.91a3,3,0,0,1,.1,4,3,3,0,0,1-4-.1Z"/><path class="cls-5" d="M368.89,144h3.91v3.91l-.6.53a3,3,0,0,1-3.66-.72A3,3,0,0,1,368.89,144Z"/><circle class="cls-2" cx="378.67" cy="145.92" r="2.77"/><path class="cls-2" d="M376.72,147.87v3.92l-.6.53a2.79,2.79,0,0,1-3.32-4.45Z"/><path class="cls-7" d="M372.8,512.17v3.43c-4.53.77-332.53,1.09-352,.34-.59-1.2-.07-2.51-.25-3.77a5.42,5.42,0,0,1,3.76-1.28q2-.09,4,0c1.31,0,2.62,0,3.94,0s2.61,0,3.91,0,2.61,0,3.92,0,2.61,0,3.91,0,2.61,0,3.92,0,2.61,0,3.91,0,2.61,0,3.91,0,2.61,0,3.92,0,2.61,0,3.91,0,2.61,0,3.92,0,2.61,0,3.91,0,2.61,0,3.91,0,2.61,0,3.92,0,2.61,0,3.91,0,2.61,0,3.92,0,2.6,0,3.91,0,2.61,0,3.91,0,2.61,0,3.92,0,2.61,0,3.91,0,2.61,0,3.92,0,2.6,0,3.91,0,2.61,0,3.91,0,2.61,0,3.92,0,2.61,0,3.91,0,2.61,0,3.91,0,2.61,0,3.92,0,2.61,0,3.91,0,2.61,0,3.92,0,2.61,0,3.91,0,2.61,0,3.91,0,2.61,0,3.92,0,2.61,0,3.91,0,2.61,0,3.92,0,2.61,0,3.91,0,2.61,0,3.91,0,2.61,0,3.92,0,2.61,0,3.91,0,2.61,0,3.92,0,2.62,0,3.92,0,2.63,0,4,0,2.66,0,4,0,2.69,0,4,0c2.44-.06,4.89-.06,7.33,0,1.35,0,2.7-.07,4,0s2.66,0,4,0,2.63,0,4,0,2.61,0,3.92,0,2.61,0,3.92,0,2.61,0,3.91,0,2.61,0,3.92,0,2.61,0,3.91,0,2.61,0,3.92,0,2.61,0,3.91,0,2.61,0,3.91,0,2.61,0,3.92,0,2.61,0,3.91,0,2.61,0,3.92,0,2.6,0,3.91,0,2.61,0,3.91,0,2.61,0,3.92,0,2.61,0,3.91,0,2.61,0,3.92,0,2.6,0,3.91,0,2.61,0,3.91,0,2.61,0,3.92,0,2.61,0,3.91,0,2.61,0,3.91,0,2.61,0,3.92,0,2.61,0,3.91,0,2.61,0,3.92,0,2.61,0,3.91,0,2.61,0,3.91,0,2.61,0,3.92,0,2.61,0,3.91,0,2.61,0,3.92,0,2.61,0,3.91,0,2.61,0,3.91,0,2.61,0,3.92,0,2.61,0,3.91,0,2.61,0,3.92,0,2.61,0,3.91,0,2.61,0,3.91,0,2.62,0,3.92,0,2.62,0,3.93,0,2.63,0,4,0,2.68,0,4,0A5.37,5.37,0,0,1,372.8,512.17Z"/><path class="cls-2" d="M376.72,504.34v3.92H372.8l-.5-.54a3.2,3.2,0,0,1,.39-3.49,3.16,3.16,0,0,1,3.49-.4Z"/><path class="cls-5" d="M24.46,512.17H20.55v-3.91a3,3,0,0,1,4-.1A3,3,0,0,1,24.46,512.17Z"/><path class="cls-5" d="M372.8,512.17h-3.91a2.77,2.77,0,1,1,3.91-3.91Z"/><circle class="cls-2" cx="378.67" cy="510.22" r="2.77"/><circle class="cls-2" cx="382.59" cy="514.13" r="2.77"/><path class="cls-7" d="M380.63,151.79h3.43c.76,4.54,1.08,332.81.34,352.3-1.2.59-2.52.07-3.77.25a5.43,5.43,0,0,1-1.28-3.76c-.06-1.33-.07-2.67,0-4s0-2.62,0-3.94,0-2.61,0-3.92,0-2.61,0-3.92,0-2.61,0-3.91,0-2.61,0-3.92,0-2.61,0-3.92,0-2.61,0-3.91,0-2.62,0-3.92,0-2.61,0-3.92,0-2.61,0-3.92,0-2.61,0-3.91,0-2.61,0-3.92,0-2.61,0-3.92,0-2.61,0-3.91,0-2.62,0-3.92,0-2.61,0-3.92,0-2.61,0-3.92,0-2.61,0-3.91,0-2.62,0-3.92,0-2.61,0-3.92,0-2.61,0-3.92,0-2.61,0-3.91,0-2.61,0-3.92,0-2.61,0-3.92,0-2.61,0-3.91,0-2.62,0-3.92,0-2.61,0-3.92,0-2.61,0-3.92,0-2.61,0-3.91,0-2.61,0-3.92,0-2.61,0-3.92,0-2.61,0-3.91,0-2.62,0-3.92,0-2.61,0-3.92,0-2.61,0-3.92,0-2.61,0-3.91,0-2.62,0-3.92,0-2.61,0-3.92,0-2.62,0-3.93,0-2.63,0-3.95,0-2.66,0-4,0-2.69,0-4q-.09-3.68,0-7.34c0-1.35-.07-2.7,0-4.05s0-2.66,0-4,0-2.63,0-4,0-2.62,0-3.93,0-2.61,0-3.92,0-2.61,0-3.91,0-2.62,0-3.92,0-2.61,0-3.92,0-2.61,0-3.92,0-2.61,0-3.91,0-2.61,0-3.92,0-2.61,0-3.92,0-2.61,0-3.91,0-2.62,0-3.92,0-2.61,0-3.92,0-2.61,0-3.92,0-2.61,0-3.91,0-2.62,0-3.92,0-2.61,0-3.92,0-2.61,0-3.92,0-2.61,0-3.91,0-2.61,0-3.92,0-2.61,0-3.92,0-2.61,0-3.91,0-2.62,0-3.92,0-2.61,0-3.92,0-2.61,0-3.92,0-2.61,0-3.91,0-2.61,0-3.92,0-2.61,0-3.92,0-2.61,0-3.91,0-2.62,0-3.92,0-2.61,0-3.92,0-2.61,0-3.92,0-2.61,0-3.91,0-2.61,0-3.92,0-2.61,0-3.92,0-2.61,0-3.91,0-2.62,0-3.92,0-2.62,0-3.92,0-2.62,0-3.93,0-2.64,0-4,0-2.68,0-4A5.46,5.46,0,0,1,380.63,151.79Z"/><path class="cls-5" d="M380.63,151.79v3.92a2.77,2.77,0,1,1-3.91-3.92Z"/><path class="cls-5" d="M380.63,500.42v3.92h-3.91a2.77,2.77,0,1,1,3.91-3.92Z"/><path class="cls-6" d="M103.72,71.49H291.59v23c-1,1.1-2.48,0-3.78.76v3.41H107.91c-.67-.89-.12-2.06-.29-3.19-1-1.14-2.45,0-3.9-.84Z"/><path class="cls-6" d="M84.15,114.58h3.91v-3.92H92v-7.83h3.91v7.83h3.92v3.92h3.91c1.19,1.3,1,2.61,0,3.92H84.15Z"/><path class="cls-5" d="M103.72,118.5v-3.92a2.77,2.77,0,1,1,3.91,3.92Z"/><path class="cls-2" d="M107.63,118.5v-3.92h3.92v3.92Z"/><path class="cls-6" d="M307.25,110.66v3.92h3.91v3.85c-6.51.14-13,0-19.57.07-1-1.31-1.19-2.62,0-3.92h3.91v-3.92h3.92v-7.83h3.91v7.83Z"/><path class="cls-2" d="M283.76,118.5v-3.92h3.92c1.18,1.3,1,2.61,0,3.92Z"/><path class="cls-5" d="M287.68,118.5v-3.92a2.84,2.84,0,0,1,3.91,0v3.92Z"/><path class="cls-2" d="M107.63,114.58h-3.91v-3.92h3.91Z"/><path class="cls-2" d="M291.59,114.58h-3.91v-3.92h3.91Z"/><path class="cls-5" d="M12.72,332v-7.83a3,3,0,0,1,4.13,0,7.2,7.2,0,0,1,0,7.79A3,3,0,0,1,12.72,332Z"/><path class="cls-4" d="M12.72,155.71h3.91l.53.6a3,3,0,0,1-.72,3.67,3,3,0,0,1-3.72-.35Z"/><path class="cls-5" d="M12.72,159.63h3.91l.48.48a3.61,3.61,0,0,1-.05,3.32,2.66,2.66,0,0,1-1.1.83,3.05,3.05,0,0,1-3.24-.72Z"/><path class="cls-4" d="M12.72,163.54h3.91a2.91,2.91,0,0,1,.11,4,3,3,0,0,1-4-.09Z"/><path class="cls-5" d="M12.72,167.46h3.91l.48.49a3.61,3.61,0,0,1-.05,3.32,2.75,2.75,0,0,1-1.1.83,3.07,3.07,0,0,1-3.24-.72Z"/><path class="cls-4" d="M12.72,171.38h3.91a2.89,2.89,0,0,1,.11,4,3,3,0,0,1-4-.08Z"/><path class="cls-5" d="M12.72,175.3h3.91l.48.48a3.61,3.61,0,0,1-.05,3.32,2.75,2.75,0,0,1-1.1.83,3.07,3.07,0,0,1-3.24-.72Z"/><path class="cls-4" d="M12.72,179.21h3.91a2.89,2.89,0,0,1,.11,4,3,3,0,0,1-4-.08Z"/><path class="cls-5" d="M12.72,183.13h3.91l.48.48a3.6,3.6,0,0,1-.05,3.32,2.58,2.58,0,0,1-1.1.83,3.07,3.07,0,0,1-3.24-.71Z"/><path class="cls-4" d="M12.72,187.05h3.91a2.89,2.89,0,0,1,.11,4,3,3,0,0,1-4-.09Z"/><path class="cls-5" d="M12.72,191h3.91l.48.49a3.61,3.61,0,0,1-.05,3.32,2.75,2.75,0,0,1-1.1.83,3.07,3.07,0,0,1-3.24-.72Z"/><path class="cls-4" d="M12.72,194.88h3.91a2.89,2.89,0,0,1,.11,4,3,3,0,0,1-4-.08Z"/><path class="cls-5" d="M12.72,198.8h3.91l.48.48a3.6,3.6,0,0,1-.05,3.32,2.58,2.58,0,0,1-1.1.83,3.07,3.07,0,0,1-3.24-.71Z"/><path class="cls-4" d="M12.72,202.72h3.91a2.89,2.89,0,0,1,.11,4,3,3,0,0,1-4-.09Z"/><path class="cls-5" d="M12.72,206.63h3.91l.48.49a3.61,3.61,0,0,1-.05,3.32,2.75,2.75,0,0,1-1.1.83,3.07,3.07,0,0,1-3.24-.72Z"/><path class="cls-4" d="M12.72,210.55h3.91a2.89,2.89,0,0,1,.11,4,3,3,0,0,1-4-.08Z"/><path class="cls-5" d="M12.72,214.47h3.91l.48.48a3.6,3.6,0,0,1-.05,3.32,2.58,2.58,0,0,1-1.1.83,3.05,3.05,0,0,1-3.24-.72Z"/><path class="cls-4" d="M12.72,218.38h3.91a2.91,2.91,0,0,1,.11,4,3,3,0,0,1-4-.09Z"/><path class="cls-5" d="M12.72,222.3h3.91l.48.49a3.61,3.61,0,0,1-.05,3.32,2.75,2.75,0,0,1-1.1.83,3.07,3.07,0,0,1-3.24-.72Z"/><path class="cls-4" d="M12.72,226.22h3.91a2.89,2.89,0,0,1,.11,4,3,3,0,0,1-4-.08Z"/><path class="cls-5" d="M12.72,230.14h3.91l.48.48a3.61,3.61,0,0,1-.05,3.32,2.66,2.66,0,0,1-1.1.83,3.05,3.05,0,0,1-3.24-.72Z"/><path class="cls-4" d="M12.72,234.05h3.91a2.91,2.91,0,0,1,.11,4,3,3,0,0,1-4-.09Z"/><path class="cls-5" d="M12.72,238h3.91l.48.48a3.63,3.63,0,0,1-.05,3.33,2.64,2.64,0,0,1-1.1.82,3,3,0,0,1-3.24-.71Z"/><path class="cls-4" d="M12.72,241.89h3.91a2.89,2.89,0,0,1,.11,4,3,3,0,0,1-4-.09Z"/><path class="cls-5" d="M12.72,245.8h3.91l.48.49a3.61,3.61,0,0,1-.05,3.32,2.66,2.66,0,0,1-1.1.83,3.07,3.07,0,0,1-3.24-.72Z"/><path class="cls-4" d="M12.72,249.72h3.91a2.89,2.89,0,0,1,.11,4,3,3,0,0,1-4-.08Z"/><path class="cls-5" d="M12.72,253.64h3.91l.48.48a3.6,3.6,0,0,1-.05,3.32,2.66,2.66,0,0,1-1.1.83,3.07,3.07,0,0,1-3.24-.71Z"/><path class="cls-4" d="M12.72,257.56h3.91a2.89,2.89,0,0,1,.11,4,3,3,0,0,1-4-.09Z"/><path class="cls-5" d="M12.72,261.47h3.91l.48.49a3.61,3.61,0,0,1-.05,3.32,2.66,2.66,0,0,1-1.1.83,3.07,3.07,0,0,1-3.24-.72Z"/><path class="cls-4" d="M12.72,265.39h3.91a2.89,2.89,0,0,1,.11,4,3,3,0,0,1-4-.08Z"/><path class="cls-5" d="M12.72,269.31h3.91l.48.48a3.6,3.6,0,0,1-.05,3.32,2.66,2.66,0,0,1-1.1.83,3.07,3.07,0,0,1-3.24-.71Z"/><path class="cls-4" d="M12.72,273.23h3.91a2.89,2.89,0,0,1,.11,4,3,3,0,0,1-4-.09Z"/><path class="cls-5" d="M12.72,277.14h3.91l.48.49a3.61,3.61,0,0,1-.05,3.32,2.66,2.66,0,0,1-1.1.83,3.07,3.07,0,0,1-3.24-.72Z"/><path class="cls-4" d="M12.72,281.06h3.91a2.89,2.89,0,0,1,.11,4,3,3,0,0,1-4-.08Z"/><path class="cls-5" d="M12.72,285h3.91l.48.48a3.6,3.6,0,0,1-.05,3.32,2.66,2.66,0,0,1-1.1.83,3.05,3.05,0,0,1-3.24-.72Z"/><path class="cls-4" d="M12.72,288.89h3.91a2.91,2.91,0,0,1,.11,4,3,3,0,0,1-4-.09Z"/><path class="cls-5" d="M12.72,292.81h3.91l.48.49a3.61,3.61,0,0,1-.05,3.32,2.75,2.75,0,0,1-1.1.83,3.07,3.07,0,0,1-3.24-.72Z"/><path class="cls-4" d="M12.72,296.73h3.91a2.89,2.89,0,0,1,.11,4,3,3,0,0,1-4-.08Z"/><path class="cls-5" d="M12.72,300.65h3.91l.48.48a3.61,3.61,0,0,1-.05,3.32,2.66,2.66,0,0,1-1.1.83,3.05,3.05,0,0,1-3.24-.72Z"/><path class="cls-4" d="M12.72,304.56h3.91a2.91,2.91,0,0,1,.11,4,3,3,0,0,1-4-.09Z"/><path class="cls-5" d="M12.72,308.48h3.91l.48.48a3.63,3.63,0,0,1-.05,3.33,2.64,2.64,0,0,1-1.1.82,3,3,0,0,1-3.24-.71Z"/><path class="cls-4" d="M12.72,312.4h3.91a2.89,2.89,0,0,1,.11,4,3,3,0,0,1-4-.09Z"/><path class="cls-5" d="M12.72,316.31h3.91l.48.49a3.61,3.61,0,0,1-.05,3.32A2.66,2.66,0,0,1,16,321a3.07,3.07,0,0,1-3.24-.72Z"/><path class="cls-4" d="M12.72,320.23h3.91a2.77,2.77,0,0,1,.52,3.39l-.52.53H12.72Z"/><path class="cls-4" d="M12.72,332h3.91l.53.6a3.06,3.06,0,0,1-.72,3.68,3,3,0,0,1-3.72-.36Z"/><path class="cls-5" d="M12.72,335.9h3.91l.48.48a3.63,3.63,0,0,1-.05,3.33,2.75,2.75,0,0,1-1.1.83,3.07,3.07,0,0,1-3.24-.72Z"/><path class="cls-4" d="M12.72,339.82h3.91a2.89,2.89,0,0,1,.11,4,3,3,0,0,1-4-.08Z"/><path class="cls-5" d="M12.72,343.74h3.91l.48.48a3.61,3.61,0,0,1-.05,3.32,2.66,2.66,0,0,1-1.1.83,3.07,3.07,0,0,1-3.24-.72Z"/><path class="cls-4" d="M12.72,347.65h3.91a2.89,2.89,0,0,1,.11,4,3,3,0,0,1-4-.08Z"/><path class="cls-5" d="M12.72,351.57h3.91l.48.48a3.6,3.6,0,0,1-.05,3.32,2.66,2.66,0,0,1-1.1.83,3.07,3.07,0,0,1-3.24-.71Z"/><path class="cls-4" d="M12.72,355.49h3.91a2.89,2.89,0,0,1,.11,4,3,3,0,0,1-4-.09Z"/><path class="cls-5" d="M12.72,359.4h3.91l.48.49a3.61,3.61,0,0,1-.05,3.32A2.66,2.66,0,0,1,16,364a3.07,3.07,0,0,1-3.24-.72Z"/><path class="cls-4" d="M12.72,363.32h3.91a2.89,2.89,0,0,1,.11,4,3,3,0,0,1-4-.08Z"/><path class="cls-5" d="M12.72,367.24h3.91l.48.48a3.6,3.6,0,0,1-.05,3.32,2.66,2.66,0,0,1-1.1.83,3.07,3.07,0,0,1-3.24-.71Z"/><path class="cls-4" d="M12.72,371.16h3.91a2.89,2.89,0,0,1,.11,4,3,3,0,0,1-4-.09Z"/><path class="cls-5" d="M12.72,375.07h3.91l.48.49a3.61,3.61,0,0,1-.05,3.32,2.66,2.66,0,0,1-1.1.83,3.07,3.07,0,0,1-3.24-.72Z"/><path class="cls-4" d="M12.72,379h3.91a2.89,2.89,0,0,1,.11,4,3,3,0,0,1-4-.08Z"/><path class="cls-5" d="M12.72,382.91h3.91l.48.48a3.6,3.6,0,0,1-.05,3.32,2.66,2.66,0,0,1-1.1.83,3.05,3.05,0,0,1-3.24-.72Z"/><path class="cls-4" d="M12.72,386.82h3.91a2.91,2.91,0,0,1,.11,4,3,3,0,0,1-4-.09Z"/><path class="cls-5" d="M12.72,390.74h3.91l.48.49a3.61,3.61,0,0,1-.05,3.32,2.66,2.66,0,0,1-1.1.83,3.07,3.07,0,0,1-3.24-.72Z"/><path class="cls-4" d="M12.72,394.66h3.91a2.89,2.89,0,0,1,.11,4,3,3,0,0,1-4-.08Z"/><path class="cls-5" d="M12.72,398.58h3.91l.48.48a3.61,3.61,0,0,1-.05,3.32,2.66,2.66,0,0,1-1.1.83,3.05,3.05,0,0,1-3.24-.72Z"/><path class="cls-4" d="M12.72,402.49h3.91a2.91,2.91,0,0,1,.11,4,3,3,0,0,1-4-.09Z"/><path class="cls-5" d="M12.72,406.41h3.91l.48.48a3.63,3.63,0,0,1-.05,3.33A2.64,2.64,0,0,1,16,411a3,3,0,0,1-3.24-.71Z"/><path class="cls-4" d="M12.72,410.33h3.91a2.89,2.89,0,0,1,.11,4,3,3,0,0,1-4-.09Z"/><path class="cls-5" d="M12.72,414.24h3.91l.48.49a3.61,3.61,0,0,1-.05,3.32,2.66,2.66,0,0,1-1.1.83,3.07,3.07,0,0,1-3.24-.72Z"/><path class="cls-4" d="M12.72,418.16h3.91a2.89,2.89,0,0,1,.11,4,3,3,0,0,1-4-.08Z"/><path class="cls-5" d="M12.72,422.08h3.91l.48.48a3.6,3.6,0,0,1-.05,3.32,2.66,2.66,0,0,1-1.1.83,3.07,3.07,0,0,1-3.24-.71Z"/><path class="cls-4" d="M12.72,426h3.91a2.89,2.89,0,0,1,.11,4,3,3,0,0,1-4-.09Z"/><path class="cls-5" d="M12.72,429.91h3.91l.48.49a3.61,3.61,0,0,1-.05,3.32,2.66,2.66,0,0,1-1.1.83,3.07,3.07,0,0,1-3.24-.72Z"/><path class="cls-4" d="M12.72,433.83h3.91a2.89,2.89,0,0,1,.11,4,3,3,0,0,1-4-.08Z"/><path class="cls-5" d="M12.72,437.75h3.91l.48.48a3.6,3.6,0,0,1-.05,3.32,2.66,2.66,0,0,1-1.1.83,3.07,3.07,0,0,1-3.24-.71Z"/><path class="cls-4" d="M12.72,441.67h3.91a2.89,2.89,0,0,1,.11,4,3,3,0,0,1-4-.09Z"/><path class="cls-5" d="M12.72,445.58h3.91l.48.49a3.61,3.61,0,0,1-.05,3.32,2.66,2.66,0,0,1-1.1.83,3.07,3.07,0,0,1-3.24-.72Z"/><path class="cls-4" d="M12.72,449.5h3.91a2.89,2.89,0,0,1,.11,4,3,3,0,0,1-4-.08Z"/><path class="cls-5" d="M12.72,453.42h3.91l.48.48a3.6,3.6,0,0,1-.05,3.32,2.66,2.66,0,0,1-1.1.83,3.05,3.05,0,0,1-3.24-.72Z"/><path class="cls-4" d="M12.72,457.33h3.91a2.91,2.91,0,0,1,.11,4,3,3,0,0,1-4-.09Z"/><path class="cls-5" d="M12.72,461.25h3.91l.48.49a3.61,3.61,0,0,1-.05,3.32,2.75,2.75,0,0,1-1.1.83,3.07,3.07,0,0,1-3.24-.72Z"/><path class="cls-4" d="M12.72,465.17h3.91a2.89,2.89,0,0,1,.11,4,3,3,0,0,1-4-.08Z"/><path class="cls-5" d="M12.72,469.09h3.91l.48.48a3.61,3.61,0,0,1-.05,3.32,2.66,2.66,0,0,1-1.1.83,3.05,3.05,0,0,1-3.24-.72Z"/><path class="cls-4" d="M12.72,473h3.91a2.91,2.91,0,0,1,.11,4,3,3,0,0,1-4-.09Z"/><path class="cls-5" d="M12.72,476.92h3.91l.48.48a3.6,3.6,0,0,1-.05,3.32,2.58,2.58,0,0,1-1.1.83,3,3,0,0,1-3.24-.71Z"/><path class="cls-4" d="M12.72,480.84h3.91a2.89,2.89,0,0,1,.11,4,3,3,0,0,1-4-.09Z"/><path class="cls-5" d="M12.72,484.75h3.91l.48.49a3.61,3.61,0,0,1-.05,3.32,2.66,2.66,0,0,1-1.1.83,3.07,3.07,0,0,1-3.24-.72Z"/><path class="cls-4" d="M12.72,488.67h3.91a2.89,2.89,0,0,1,.11,4,3,3,0,0,1-4-.08Z"/><path class="cls-5" d="M12.72,492.59h3.91l.48.48a3.6,3.6,0,0,1-.05,3.32,2.66,2.66,0,0,1-1.1.83,3.07,3.07,0,0,1-3.24-.71Z"/><path class="cls-4" d="M12.72,496.51h3.91a2.75,2.75,0,0,1,.52,3.38c-.17.18-.34.36-.52.53H12.72Z"/><path class="cls-7" d="M20.55,147.87h3.91c.17.19.34.37.52.55a3.39,3.39,0,0,1-.3,3.58,3.38,3.38,0,0,1-3.59.32l-.54-.53Z"/><path class="cls-7" d="M16.63,155.71v-3.92h3.92a3.18,3.18,0,0,1,.2,4.12A3.2,3.2,0,0,1,16.63,155.71Z"/><path class="cls-7" d="M20.55,504.34H16.63v-3.92a3.17,3.17,0,0,1,3.78-.43,3.08,3.08,0,0,1,.68,3.74Z"/><path class="cls-7" d="M24.46,508.26H20.55v-3.92a3.16,3.16,0,0,1,3.77-.44,3.11,3.11,0,0,1,.69,3.75C24.83,507.85,24.64,508.05,24.46,508.26Z"/><path class="cls-5" d="M192.76,144h7.83a3.22,3.22,0,0,1,.61,3.53,2.36,2.36,0,0,1-1.06,1.06,11.47,11.47,0,0,1-6.79,0,2.51,2.51,0,0,1-1.14-1A3.21,3.21,0,0,1,192.76,144Z"/><path class="cls-4" d="M24.46,147.87V144h3.92a3,3,0,0,1,.09,4A3,3,0,0,1,24.46,147.87Z"/><path class="cls-5" d="M28.38,147.87V144h3.91a3.05,3.05,0,0,1,.72,3.21,2.69,2.69,0,0,1-.8,1.12,3.58,3.58,0,0,1-3.35.08Z"/><path class="cls-4" d="M32.29,147.87V144H36.2a3,3,0,0,1,.09,4A2.88,2.88,0,0,1,32.29,147.87Z"/><path class="cls-5" d="M36.2,147.87V144h3.92a3.05,3.05,0,0,1,.72,3.21,2.79,2.79,0,0,1-.8,1.12,3.58,3.58,0,0,1-3.35.08Z"/><path class="cls-4" d="M40.12,147.87V144H44a3,3,0,0,1,.09,4A2.88,2.88,0,0,1,40.12,147.87Z"/><path class="cls-5" d="M44,147.87V144H48a3.07,3.07,0,0,1,.72,3.21,2.79,2.79,0,0,1-.8,1.12,3.58,3.58,0,0,1-3.35.08Z"/><path class="cls-4" d="M48,147.87V144h3.91a3,3,0,0,1,.09,4A2.88,2.88,0,0,1,48,147.87Z"/><path class="cls-5" d="M51.86,147.87V144h3.91a3.06,3.06,0,0,1,.73,3.21,2.89,2.89,0,0,1-.8,1.12,3.58,3.58,0,0,1-3.35.08Z"/><path class="cls-4" d="M55.77,147.87V144h3.92a3,3,0,0,1,.09,4A2.9,2.9,0,0,1,55.77,147.87Z"/><path class="cls-5" d="M59.69,147.87V144H63.6a3.08,3.08,0,0,1,.73,3.21,2.81,2.81,0,0,1-.81,1.12,3.56,3.56,0,0,1-3.34.08Z"/><path class="cls-4" d="M63.6,147.87V144h3.92a3,3,0,0,1,.09,4A2.9,2.9,0,0,1,63.6,147.87Z"/><path class="cls-5" d="M67.52,147.87V144h3.91a3.05,3.05,0,0,1,.72,3.21,2.79,2.79,0,0,1-.8,1.12,3.58,3.58,0,0,1-3.35.08Z"/><path class="cls-4" d="M71.43,147.87V144h3.91a3,3,0,0,1,.09,4A2.88,2.88,0,0,1,71.43,147.87Z"/><path class="cls-5" d="M75.34,147.87V144h3.92a3.05,3.05,0,0,1,.72,3.21,2.79,2.79,0,0,1-.8,1.12,3.58,3.58,0,0,1-3.35.08Z"/><path class="cls-4" d="M79.26,147.87V144h3.91a3,3,0,0,1,.09,4A2.88,2.88,0,0,1,79.26,147.87Z"/><path class="cls-5" d="M83.17,147.87V144h3.92a3.07,3.07,0,0,1,.72,3.21,2.79,2.79,0,0,1-.8,1.12,3.58,3.58,0,0,1-3.35.08Z"/><path class="cls-4" d="M87.09,147.87V144H91a3,3,0,0,1,.09,4A2.88,2.88,0,0,1,87.09,147.87Z"/><path class="cls-5" d="M91,147.87V144h3.91a3.06,3.06,0,0,1,.73,3.21,2.79,2.79,0,0,1-.8,1.12,3.58,3.58,0,0,1-3.35.08Z"/><path class="cls-4" d="M94.91,147.87V144h3.92a3,3,0,0,1,.09,4A2.9,2.9,0,0,1,94.91,147.87Z"/><path class="cls-5" d="M98.83,147.87V144h3.91a3.08,3.08,0,0,1,.73,3.21,2.91,2.91,0,0,1-.81,1.12,3.56,3.56,0,0,1-3.34.08Z"/><path class="cls-4" d="M102.74,147.87V144h3.92a3,3,0,0,1,.09,4A2.9,2.9,0,0,1,102.74,147.87Z"/><path class="cls-5" d="M106.66,147.87V144h3.91a3.05,3.05,0,0,1,.72,3.21,2.79,2.79,0,0,1-.8,1.12,3.58,3.58,0,0,1-3.35.08Z"/><path class="cls-4" d="M110.57,147.87V144h3.91a3,3,0,0,1,.09,4A2.88,2.88,0,0,1,110.57,147.87Z"/><path class="cls-5" d="M114.48,147.87V144h3.92a3.05,3.05,0,0,1,.72,3.21,2.79,2.79,0,0,1-.8,1.12,3.58,3.58,0,0,1-3.35.08Z"/><path class="cls-4" d="M118.4,147.87V144h3.91a3,3,0,0,1,.09,4A2.88,2.88,0,0,1,118.4,147.87Z"/><path class="cls-5" d="M122.31,147.87V144h3.91a3.06,3.06,0,0,1,.73,3.21,2.79,2.79,0,0,1-.8,1.12,3.58,3.58,0,0,1-3.35.08Z"/><path class="cls-4" d="M126.22,147.87V144h3.92a3,3,0,0,1,.09,4A2.9,2.9,0,0,1,126.22,147.87Z"/><path class="cls-5" d="M130.14,147.87V144h3.91a3.06,3.06,0,0,1,.73,3.21,2.79,2.79,0,0,1-.8,1.12,3.58,3.58,0,0,1-3.35.08Z"/><path class="cls-4" d="M134.05,147.87V144H138a3,3,0,0,1,.09,4A2.9,2.9,0,0,1,134.05,147.87Z"/><path class="cls-5" d="M138,147.87V144h3.91a3.05,3.05,0,0,1,.72,3.21,2.79,2.79,0,0,1-.8,1.12,3.56,3.56,0,0,1-3.34.08Z"/><path class="cls-4" d="M141.88,147.87V144h3.91a3,3,0,0,1,.09,4A2.88,2.88,0,0,1,141.88,147.87Z"/><path class="cls-5" d="M145.79,147.87V144h3.92a3.05,3.05,0,0,1,.72,3.21,2.79,2.79,0,0,1-.8,1.12,3.58,3.58,0,0,1-3.35.08Z"/><path class="cls-4" d="M149.71,147.87V144h3.91a3,3,0,0,1,.09,4A2.88,2.88,0,0,1,149.71,147.87Z"/><path class="cls-5" d="M153.62,147.87V144h3.92a3.05,3.05,0,0,1,.72,3.21,2.79,2.79,0,0,1-.8,1.12,3.58,3.58,0,0,1-3.35.08Z"/><path class="cls-4" d="M157.54,147.87V144h3.91a3,3,0,0,1,.09,4A2.88,2.88,0,0,1,157.54,147.87Z"/><path class="cls-5" d="M161.45,147.87V144h3.91a3.06,3.06,0,0,1,.73,3.21,2.79,2.79,0,0,1-.8,1.12,3.58,3.58,0,0,1-3.35.08Z"/><path class="cls-4" d="M165.36,147.87V144h3.92a3,3,0,0,1,.09,4A2.9,2.9,0,0,1,165.36,147.87Z"/><path class="cls-5" d="M169.28,147.87V144h3.91a3.06,3.06,0,0,1,.73,3.21,2.79,2.79,0,0,1-.8,1.12,3.58,3.58,0,0,1-3.35.08Z"/><path class="cls-4" d="M173.19,147.87V144h3.92a3,3,0,0,1,.09,4A2.9,2.9,0,0,1,173.19,147.87Z"/><path class="cls-5" d="M177.11,147.87V144H181a3.05,3.05,0,0,1,.72,3.21,2.79,2.79,0,0,1-.8,1.12,3.58,3.58,0,0,1-3.35.08Z"/><path class="cls-4" d="M181,147.87V144h3.91a3,3,0,0,1,.09,4A2.88,2.88,0,0,1,181,147.87Z"/><path class="cls-5" d="M184.93,147.87V144h3.92a3.05,3.05,0,0,1,.72,3.21,2.79,2.79,0,0,1-.8,1.12,3.58,3.58,0,0,1-3.35.08Z"/><path class="cls-4" d="M188.85,147.87V144h3.91v3.91A2.68,2.68,0,0,1,188.85,147.87Z"/><path class="cls-4" d="M200.59,147.87V144h3.91a3,3,0,0,1,.09,4A2.88,2.88,0,0,1,200.59,147.87Z"/><path class="cls-5" d="M204.5,147.87V144h3.92a3.05,3.05,0,0,1,.72,3.21,2.79,2.79,0,0,1-.8,1.12,3.58,3.58,0,0,1-3.35.08Z"/><path class="cls-4" d="M208.42,147.87V144h3.91a3,3,0,0,1,.09,4A2.88,2.88,0,0,1,208.42,147.87Z"/><path class="cls-5" d="M212.33,147.87V144h3.92a3.07,3.07,0,0,1,.72,3.21,2.79,2.79,0,0,1-.8,1.12,3.58,3.58,0,0,1-3.35.08Z"/><path class="cls-4" d="M216.25,147.87V144h3.91a3,3,0,0,1,.09,4A2.88,2.88,0,0,1,216.25,147.87Z"/><path class="cls-5" d="M220.16,147.87V144h3.91a3.06,3.06,0,0,1,.73,3.21,2.79,2.79,0,0,1-.8,1.12,3.58,3.58,0,0,1-3.35.08Z"/><path class="cls-4" d="M224.07,147.87V144H228a3,3,0,0,1,.09,4A2.9,2.9,0,0,1,224.07,147.87Z"/><path class="cls-5" d="M228,147.87V144h3.91a3.08,3.08,0,0,1,.73,3.21,2.91,2.91,0,0,1-.81,1.12,3.56,3.56,0,0,1-3.34.08Z"/><path class="cls-4" d="M231.9,147.87V144h3.92a3,3,0,0,1,.09,4A2.9,2.9,0,0,1,231.9,147.87Z"/><path class="cls-5" d="M235.82,147.87V144h3.91a3.05,3.05,0,0,1,.72,3.21,2.79,2.79,0,0,1-.8,1.12,3.58,3.58,0,0,1-3.35.08Z"/><path class="cls-4" d="M239.73,147.87V144h3.91a3,3,0,0,1,.09,4A2.88,2.88,0,0,1,239.73,147.87Z"/><path class="cls-5" d="M243.64,147.87V144h3.92a3.05,3.05,0,0,1,.72,3.21,2.79,2.79,0,0,1-.8,1.12,3.58,3.58,0,0,1-3.35.08Z"/><path class="cls-4" d="M247.56,147.87V144h3.91a3,3,0,0,1,.09,4A2.88,2.88,0,0,1,247.56,147.87Z"/><path class="cls-5" d="M251.47,147.87V144h3.92a3.07,3.07,0,0,1,.72,3.21,2.79,2.79,0,0,1-.8,1.12,3.58,3.58,0,0,1-3.35.08Z"/><path class="cls-4" d="M255.39,147.87V144h3.91a3,3,0,0,1,.09,4A2.88,2.88,0,0,1,255.39,147.87Z"/><path class="cls-5" d="M259.3,147.87V144h3.91a3.06,3.06,0,0,1,.73,3.21,2.89,2.89,0,0,1-.8,1.12,3.58,3.58,0,0,1-3.35.08Z"/><path class="cls-4" d="M263.21,147.87V144h3.92a3,3,0,0,1,.09,4A2.9,2.9,0,0,1,263.21,147.87Z"/><path class="cls-5" d="M267.13,147.87V144H271a3.08,3.08,0,0,1,.73,3.21,2.81,2.81,0,0,1-.81,1.12,3.56,3.56,0,0,1-3.34.08Z"/><path class="cls-4" d="M271,147.87V144H275a3,3,0,0,1,.09,4A2.9,2.9,0,0,1,271,147.87Z"/><path class="cls-5" d="M275,147.87V144h3.91a3.05,3.05,0,0,1,.72,3.21,2.79,2.79,0,0,1-.8,1.12,3.58,3.58,0,0,1-3.35.08Z"/><path class="cls-4" d="M278.87,147.87V144h3.91a3,3,0,0,1,.09,4A2.88,2.88,0,0,1,278.87,147.87Z"/><path class="cls-5" d="M282.78,147.87V144h3.92a3.05,3.05,0,0,1,.72,3.21,2.79,2.79,0,0,1-.8,1.12,3.58,3.58,0,0,1-3.35.08Z"/><path class="cls-4" d="M286.7,147.87V144h3.91a3,3,0,0,1,.09,4A2.88,2.88,0,0,1,286.7,147.87Z"/><path class="cls-5" d="M290.61,147.87V144h3.91a3.06,3.06,0,0,1,.73,3.21,2.79,2.79,0,0,1-.8,1.12,3.58,3.58,0,0,1-3.35.08Z"/><path class="cls-4" d="M294.52,147.87V144h3.92a3,3,0,0,1,.09,4A2.9,2.9,0,0,1,294.52,147.87Z"/><path class="cls-5" d="M298.44,147.87V144h3.91a3.06,3.06,0,0,1,.73,3.21,2.89,2.89,0,0,1-.8,1.12,3.58,3.58,0,0,1-3.35.08Z"/><path class="cls-4" d="M302.35,147.87V144h3.92a3,3,0,0,1,.09,4A2.9,2.9,0,0,1,302.35,147.87Z"/><path class="cls-5" d="M306.27,147.87V144h3.91a3.05,3.05,0,0,1,.72,3.21,2.69,2.69,0,0,1-.8,1.12,3.56,3.56,0,0,1-3.34.08Z"/><path class="cls-4" d="M310.18,147.87V144h3.91a3,3,0,0,1,.09,4A2.88,2.88,0,0,1,310.18,147.87Z"/><path class="cls-5" d="M314.09,147.87V144H318a3.05,3.05,0,0,1,.72,3.21,2.79,2.79,0,0,1-.8,1.12,3.58,3.58,0,0,1-3.35.08Z"/><path class="cls-4" d="M318,147.87V144h3.91a3,3,0,0,1,.09,4A2.88,2.88,0,0,1,318,147.87Z"/><path class="cls-5" d="M321.92,147.87V144h3.92a3.05,3.05,0,0,1,.72,3.21,2.79,2.79,0,0,1-.8,1.12,3.58,3.58,0,0,1-3.35.08Z"/><path class="cls-4" d="M325.84,147.87V144h3.91a3,3,0,0,1,.09,4A2.88,2.88,0,0,1,325.84,147.87Z"/><path class="cls-5" d="M329.75,147.87V144h3.91a3.06,3.06,0,0,1,.73,3.21,2.89,2.89,0,0,1-.8,1.12,3.58,3.58,0,0,1-3.35.08Z"/><path class="cls-4" d="M333.66,147.87V144h3.92a3,3,0,0,1,.09,4A2.9,2.9,0,0,1,333.66,147.87Z"/><path class="cls-5" d="M337.58,147.87V144h3.91a3.06,3.06,0,0,1,.73,3.21,2.89,2.89,0,0,1-.8,1.12,3.58,3.58,0,0,1-3.35.08Z"/><path class="cls-4" d="M341.49,147.87V144h3.92a3,3,0,0,1,.09,4A2.9,2.9,0,0,1,341.49,147.87Z"/><path class="cls-5" d="M345.41,147.87V144h3.91a3.05,3.05,0,0,1,.72,3.21,2.69,2.69,0,0,1-.8,1.12,3.58,3.58,0,0,1-3.35.08Z"/><path class="cls-4" d="M349.32,147.87V144h3.91a3,3,0,0,1,.09,4A2.88,2.88,0,0,1,349.32,147.87Z"/><path class="cls-5" d="M353.23,147.87V144h3.92a3.05,3.05,0,0,1,.72,3.21,2.79,2.79,0,0,1-.8,1.12,3.58,3.58,0,0,1-3.35.08Z"/><path class="cls-4" d="M357.15,147.87V144h3.91a3,3,0,0,1,.09,4A2.88,2.88,0,0,1,357.15,147.87Z"/><path class="cls-5" d="M361.06,147.87V144H365a3.05,3.05,0,0,1,.72,3.21,2.79,2.79,0,0,1-.8,1.12,3.58,3.58,0,0,1-3.35.08Z"/><path class="cls-4" d="M365,147.87V144h3.91v3.91l-.53.51A2.74,2.74,0,0,1,365,147.87Z"/><path class="cls-7" d="M372.8,147.87v3.92l-.6.54a3.11,3.11,0,0,1-3.74-.67,3.17,3.17,0,0,1,.43-3.79Z"/><path class="cls-7" d="M376.72,151.79v3.92l-.61.54a3.13,3.13,0,0,1-3.74-.67,3.17,3.17,0,0,1,.43-3.79Z"/><path class="cls-5" d="M200.59,512.17h-7.83a3.2,3.2,0,0,1-.61-3.52,2.29,2.29,0,0,1,1.07-1.06,11.36,11.36,0,0,1,6.78-.06,2.46,2.46,0,0,1,1.14,1A3.18,3.18,0,0,1,200.59,512.17Z"/><path class="cls-4" d="M24.46,512.17v-3.91a3,3,0,0,1,4-.1,3,3,0,0,1-.09,4Z"/><path class="cls-5" d="M28.38,512.17v-3.91l.48-.48a3.61,3.61,0,0,1,3.32.05,2.66,2.66,0,0,1,.83,1.1,3.06,3.06,0,0,1-.72,3.24Z"/><path class="cls-4" d="M32.29,512.17v-3.91a2.91,2.91,0,0,1,4-.11,3,3,0,0,1-.09,4Z"/><path class="cls-5" d="M36.2,512.17v-3.91l.49-.48a3.61,3.61,0,0,1,3.32.05,2.64,2.64,0,0,1,.82,1.1,3.06,3.06,0,0,1-.71,3.24Z"/><path class="cls-4" d="M40.12,512.17v-3.91a2.91,2.91,0,0,1,4-.11,3,3,0,0,1-.09,4Z"/><path class="cls-5" d="M44,512.17v-3.91l.49-.48a3.58,3.58,0,0,1,3.31.05,2.66,2.66,0,0,1,.83,1.1,3.06,3.06,0,0,1-.71,3.24Z"/><path class="cls-4" d="M48,512.17v-3.91a2.9,2.9,0,0,1,4-.11,3,3,0,0,1-.08,4Z"/><path class="cls-5" d="M51.86,512.17v-3.91l.48-.48a3.6,3.6,0,0,1,3.32.05,2.66,2.66,0,0,1,.83,1.1,3,3,0,0,1-.72,3.24Z"/><path class="cls-4" d="M55.77,512.17v-3.91a2.91,2.91,0,0,1,4-.11,3,3,0,0,1-.08,4Z"/><path class="cls-5" d="M59.69,512.17v-3.91l.48-.48a3.6,3.6,0,0,1,3.32.05,2.66,2.66,0,0,1,.83,1.1,3.06,3.06,0,0,1-.72,3.24Z"/><path class="cls-4" d="M63.6,512.17v-3.91a2.91,2.91,0,0,1,4-.11,3,3,0,0,1-.08,4Z"/><path class="cls-5" d="M67.52,512.17v-3.91l.48-.48a3.61,3.61,0,0,1,3.32.05,2.66,2.66,0,0,1,.83,1.1,3.06,3.06,0,0,1-.72,3.24Z"/><path class="cls-4" d="M71.43,512.17v-3.91a2.91,2.91,0,0,1,4-.11,3,3,0,0,1-.09,4Z"/><path class="cls-5" d="M75.34,512.17v-3.91l.49-.48a3.61,3.61,0,0,1,3.32.05,2.64,2.64,0,0,1,.82,1.1,3.06,3.06,0,0,1-.71,3.24Z"/><path class="cls-4" d="M79.26,512.17v-3.91a2.91,2.91,0,0,1,4-.11,3,3,0,0,1-.09,4Z"/><path class="cls-5" d="M83.17,512.17v-3.91l.49-.48a3.58,3.58,0,0,1,3.31.05,2.66,2.66,0,0,1,.83,1.1,3.06,3.06,0,0,1-.71,3.24Z"/><path class="cls-4" d="M87.09,512.17v-3.91a2.9,2.9,0,0,1,4-.11,3,3,0,0,1-.08,4Z"/><path class="cls-5" d="M91,512.17v-3.91l.48-.48a3.6,3.6,0,0,1,3.32.05,2.66,2.66,0,0,1,.83,1.1,3.06,3.06,0,0,1-.72,3.24Z"/><path class="cls-4" d="M94.91,512.17v-3.91a2.91,2.91,0,0,1,4-.11,3,3,0,0,1-.08,4Z"/><path class="cls-5" d="M98.83,512.17v-3.91l.48-.48a3.61,3.61,0,0,1,3.32.05,2.66,2.66,0,0,1,.83,1.1,3.06,3.06,0,0,1-.72,3.24Z"/><path class="cls-4" d="M102.74,512.17v-3.91a2.91,2.91,0,0,1,4-.11,3,3,0,0,1-.08,4Z"/><path class="cls-5" d="M106.66,512.17v-3.91l.48-.48a3.61,3.61,0,0,1,3.32.05,2.75,2.75,0,0,1,.83,1.1,3.06,3.06,0,0,1-.72,3.24Z"/><path class="cls-4" d="M110.57,512.17v-3.91a2.91,2.91,0,0,1,4-.11,3,3,0,0,1-.09,4Z"/><path class="cls-5" d="M114.48,512.17v-3.91l.49-.48a3.58,3.58,0,0,1,3.31.05,2.66,2.66,0,0,1,.83,1.1,3.06,3.06,0,0,1-.71,3.24Z"/><path class="cls-4" d="M118.4,512.17v-3.91a2.91,2.91,0,0,1,4-.11,3,3,0,0,1-.09,4Z"/><path class="cls-5" d="M122.31,512.17v-3.91l.48-.48a3.6,3.6,0,0,1,3.32.05,2.58,2.58,0,0,1,.83,1.1,3,3,0,0,1-.72,3.24Z"/><path class="cls-4" d="M126.22,512.17v-3.91a2.91,2.91,0,0,1,4-.11,3,3,0,0,1-.08,4Z"/><path class="cls-5" d="M130.14,512.17v-3.91l.48-.48a3.6,3.6,0,0,1,3.32.05,2.66,2.66,0,0,1,.83,1.1,3.06,3.06,0,0,1-.72,3.24Z"/><path class="cls-4" d="M134.05,512.17v-3.91a2.91,2.91,0,0,1,4-.11,3,3,0,0,1-.08,4Z"/><path class="cls-5" d="M138,512.17v-3.91l.48-.48a3.61,3.61,0,0,1,3.32.05,2.75,2.75,0,0,1,.83,1.1,3.06,3.06,0,0,1-.72,3.24Z"/><path class="cls-4" d="M141.88,512.17v-3.91a2.91,2.91,0,0,1,4-.11,3,3,0,0,1-.09,4Z"/><path class="cls-5" d="M145.79,512.17v-3.91l.49-.48a3.61,3.61,0,0,1,3.32.05,2.75,2.75,0,0,1,.83,1.1,3.06,3.06,0,0,1-.72,3.24Z"/><path class="cls-4" d="M149.71,512.17v-3.91a2.91,2.91,0,0,1,4-.11,3,3,0,0,1-.09,4Z"/><path class="cls-5" d="M153.62,512.17v-3.91l.49-.48a3.58,3.58,0,0,1,3.31.05,2.58,2.58,0,0,1,.83,1.1,3.06,3.06,0,0,1-.71,3.24Z"/><path class="cls-4" d="M157.54,512.17v-3.91a2.91,2.91,0,0,1,4-.11,3,3,0,0,1-.09,4Z"/><path class="cls-5" d="M161.45,512.17v-3.91l.48-.48a3.6,3.6,0,0,1,3.32.05,2.58,2.58,0,0,1,.83,1.1,3,3,0,0,1-.72,3.24Z"/><path class="cls-4" d="M165.36,512.17v-3.91a2.91,2.91,0,0,1,4-.11,3,3,0,0,1-.08,4Z"/><path class="cls-5" d="M169.28,512.17v-3.91l.48-.48a3.6,3.6,0,0,1,3.32.05,2.75,2.75,0,0,1,.83,1.1,3.06,3.06,0,0,1-.72,3.24Z"/><path class="cls-4" d="M173.19,512.17v-3.91a2.91,2.91,0,0,1,4-.11,3,3,0,0,1-.08,4Z"/><path class="cls-5" d="M177.11,512.17v-3.91l.48-.48a3.61,3.61,0,0,1,3.32.05,2.75,2.75,0,0,1,.83,1.1,3.06,3.06,0,0,1-.72,3.24Z"/><path class="cls-4" d="M181,512.17v-3.91a2.91,2.91,0,0,1,4-.11,3,3,0,0,1-.09,4Z"/><path class="cls-5" d="M184.93,512.17v-3.91l.49-.48a3.61,3.61,0,0,1,3.32.05,2.64,2.64,0,0,1,.82,1.1,3,3,0,0,1-.71,3.24Z"/><path class="cls-4" d="M188.85,512.17v-3.91a2.68,2.68,0,0,1,3.91,0v3.91Z"/><path class="cls-4" d="M200.59,512.17v-3.91a2.91,2.91,0,0,1,4-.11,3,3,0,0,1-.09,4Z"/><path class="cls-5" d="M204.5,512.17v-3.91l.49-.48a3.61,3.61,0,0,1,3.32.05,2.64,2.64,0,0,1,.82,1.1,3.06,3.06,0,0,1-.71,3.24Z"/><path class="cls-4" d="M208.42,512.17v-3.91a2.91,2.91,0,0,1,4-.11,3,3,0,0,1-.09,4Z"/><path class="cls-5" d="M212.33,512.17v-3.91l.49-.48a3.58,3.58,0,0,1,3.31.05,2.58,2.58,0,0,1,.83,1.1,3.06,3.06,0,0,1-.71,3.24Z"/><path class="cls-4" d="M216.25,512.17v-3.91a2.9,2.9,0,0,1,4-.11,3,3,0,0,1-.08,4Z"/><path class="cls-5" d="M220.16,512.17v-3.91l.48-.48a3.6,3.6,0,0,1,3.32.05,2.66,2.66,0,0,1,.83,1.1,3,3,0,0,1-.72,3.24Z"/><path class="cls-4" d="M224.07,512.17v-3.91a2.91,2.91,0,0,1,4-.11,3,3,0,0,1-.08,4Z"/><path class="cls-5" d="M228,512.17v-3.91l.48-.48a3.6,3.6,0,0,1,3.32.05,2.75,2.75,0,0,1,.83,1.1,3.06,3.06,0,0,1-.72,3.24Z"/><path class="cls-4" d="M231.9,512.17v-3.91a2.91,2.91,0,0,1,4-.11,3,3,0,0,1-.08,4Z"/><path class="cls-5" d="M235.82,512.17v-3.91l.48-.48a3.61,3.61,0,0,1,3.32.05,2.75,2.75,0,0,1,.83,1.1,3.06,3.06,0,0,1-.72,3.24Z"/><path class="cls-4" d="M239.73,512.17v-3.91a2.91,2.91,0,0,1,4-.11,3,3,0,0,1-.09,4Z"/><path class="cls-5" d="M243.64,512.17v-3.91l.49-.48a3.61,3.61,0,0,1,3.32.05,2.64,2.64,0,0,1,.82,1.1,3.06,3.06,0,0,1-.71,3.24Z"/><path class="cls-4" d="M247.56,512.17v-3.91a2.91,2.91,0,0,1,4-.11,3,3,0,0,1-.09,4Z"/><path class="cls-5" d="M251.47,512.17v-3.91l.49-.48a3.58,3.58,0,0,1,3.31.05,2.66,2.66,0,0,1,.83,1.1,3.06,3.06,0,0,1-.71,3.24Z"/><path class="cls-4" d="M255.39,512.17v-3.91a2.9,2.9,0,0,1,4-.11,3,3,0,0,1-.08,4Z"/><path class="cls-5" d="M259.3,512.17v-3.91l.48-.48a3.6,3.6,0,0,1,3.32.05,2.66,2.66,0,0,1,.83,1.1,3.06,3.06,0,0,1-.72,3.24Z"/><path class="cls-4" d="M263.21,512.17v-3.91a2.91,2.91,0,0,1,4-.11,3,3,0,0,1-.08,4Z"/><path class="cls-5" d="M267.13,512.17v-3.91l.48-.48a3.61,3.61,0,0,1,3.32.05,2.66,2.66,0,0,1,.83,1.1,3.06,3.06,0,0,1-.72,3.24Z"/><path class="cls-4" d="M271,512.17v-3.91a2.91,2.91,0,0,1,4-.11,3,3,0,0,1-.08,4Z"/><path class="cls-5" d="M275,512.17v-3.91l.48-.48a3.61,3.61,0,0,1,3.32.05,2.66,2.66,0,0,1,.83,1.1,3.06,3.06,0,0,1-.72,3.24Z"/><path class="cls-4" d="M278.87,512.17v-3.91a2.91,2.91,0,0,1,4-.11,3,3,0,0,1-.09,4Z"/><path class="cls-5" d="M282.78,512.17v-3.91l.49-.48a3.58,3.58,0,0,1,3.31.05,2.66,2.66,0,0,1,.83,1.1,3.06,3.06,0,0,1-.71,3.24Z"/><path class="cls-4" d="M286.7,512.17v-3.91a2.91,2.91,0,0,1,4-.11,3,3,0,0,1-.09,4Z"/><path class="cls-5" d="M290.61,512.17v-3.91l.48-.48a3.6,3.6,0,0,1,3.32.05,2.66,2.66,0,0,1,.83,1.1,3,3,0,0,1-.72,3.24Z"/><path class="cls-4" d="M294.52,512.17v-3.91a2.91,2.91,0,0,1,4-.11,3,3,0,0,1-.08,4Z"/><path class="cls-5" d="M298.44,512.17v-3.91l.48-.48a3.6,3.6,0,0,1,3.32.05,2.66,2.66,0,0,1,.83,1.1,3.06,3.06,0,0,1-.72,3.24Z"/><path class="cls-4" d="M302.35,512.17v-3.91a2.91,2.91,0,0,1,4-.11,3,3,0,0,1-.08,4Z"/><path class="cls-5" d="M306.27,512.17v-3.91l.48-.48a3.61,3.61,0,0,1,3.32.05,2.66,2.66,0,0,1,.83,1.1,3.06,3.06,0,0,1-.72,3.24Z"/><path class="cls-4" d="M310.18,512.17v-3.91a2.91,2.91,0,0,1,4-.11,3,3,0,0,1-.09,4Z"/><path class="cls-5" d="M314.09,512.17v-3.91l.49-.48a3.61,3.61,0,0,1,3.32.05,2.75,2.75,0,0,1,.83,1.1,3.06,3.06,0,0,1-.72,3.24Z"/><path class="cls-4" d="M318,512.17v-3.91a2.91,2.91,0,0,1,4-.11,3,3,0,0,1-.09,4Z"/><path class="cls-5" d="M321.92,512.17v-3.91l.49-.48a3.58,3.58,0,0,1,3.31.05,2.66,2.66,0,0,1,.83,1.1,3.06,3.06,0,0,1-.71,3.24Z"/><path class="cls-4" d="M325.84,512.17v-3.91a2.91,2.91,0,0,1,4-.11,3,3,0,0,1-.09,4Z"/><path class="cls-5" d="M329.75,512.17v-3.91l.48-.48a3.6,3.6,0,0,1,3.32.05,2.66,2.66,0,0,1,.83,1.1,3,3,0,0,1-.72,3.24Z"/><path class="cls-4" d="M333.66,512.17v-3.91a2.91,2.91,0,0,1,4-.11,3,3,0,0,1-.08,4Z"/><path class="cls-5" d="M337.58,512.17v-3.91l.48-.48a3.6,3.6,0,0,1,3.32.05,2.66,2.66,0,0,1,.83,1.1,3.06,3.06,0,0,1-.72,3.24Z"/><path class="cls-4" d="M341.49,512.17v-3.91a2.91,2.91,0,0,1,4-.11,3,3,0,0,1-.08,4Z"/><path class="cls-5" d="M345.41,512.17v-3.91l.48-.48a3.61,3.61,0,0,1,3.32.05,2.66,2.66,0,0,1,.83,1.1,3.06,3.06,0,0,1-.72,3.24Z"/><path class="cls-4" d="M349.32,512.17v-3.91a2.91,2.91,0,0,1,4-.11,3,3,0,0,1-.09,4Z"/><path class="cls-5" d="M353.23,512.17v-3.91l.49-.48a3.61,3.61,0,0,1,3.32.05,2.64,2.64,0,0,1,.82,1.1,3.06,3.06,0,0,1-.71,3.24Z"/><path class="cls-4" d="M357.15,512.17v-3.91a2.91,2.91,0,0,1,4-.11,3,3,0,0,1-.09,4Z"/><path class="cls-5" d="M361.06,512.17v-3.91l.49-.48a3.58,3.58,0,0,1,3.31.05,2.66,2.66,0,0,1,.83,1.1,3.06,3.06,0,0,1-.71,3.24Z"/><path class="cls-4" d="M365,512.17v-3.91a2.74,2.74,0,0,1,3.38-.51c.18.16.35.34.53.51v3.91Z"/><path class="cls-7" d="M376.72,500.42v3.92H372.8l-.51-.55a2.79,2.79,0,0,1,3.88-3.89Z"/><path class="cls-7" d="M372.8,508.26h-3.91a3.2,3.2,0,0,1-.2-4.12,3.16,3.16,0,0,1,4.11.2Z"/><path class="cls-5" d="M380.63,324.15V332a3.18,3.18,0,0,1-3.52.61,2.23,2.23,0,0,1-1.06-1.06,11.4,11.4,0,0,1-.06-6.79,2.46,2.46,0,0,1,1-1.14A3.18,3.18,0,0,1,380.63,324.15Z"/><path class="cls-4" d="M376.72,155.71h3.91v3.92a2.77,2.77,0,1,1-3.91-3.92Z"/><path class="cls-5" d="M376.72,159.63h3.91v3.91a3.06,3.06,0,0,1-3.21.73,2.79,2.79,0,0,1-1.12-.8,3.58,3.58,0,0,1-.07-3.35C376.39,160,376.55,159.79,376.72,159.63Z"/><path class="cls-4" d="M376.72,163.54h3.91v3.92a3,3,0,0,1-4,.09A2.9,2.9,0,0,1,376.72,163.54Z"/><path class="cls-5" d="M376.72,167.46h3.91v3.92a3.05,3.05,0,0,1-3.21.72,2.79,2.79,0,0,1-1.12-.8,3.58,3.58,0,0,1-.07-3.35C376.39,167.79,376.55,167.62,376.72,167.46Z"/><path class="cls-4" d="M376.72,171.38h3.91v3.92a3,3,0,0,1-4,.09A2.9,2.9,0,0,1,376.72,171.38Z"/><path class="cls-5" d="M376.72,175.3h3.91v3.91a3.06,3.06,0,0,1-3.21.73,2.79,2.79,0,0,1-1.12-.8,3.6,3.6,0,0,1-.07-3.36Z"/><path class="cls-4" d="M376.72,179.21h3.91v3.92a3,3,0,0,1-4,.09A2.9,2.9,0,0,1,376.72,179.21Z"/><path class="cls-5" d="M376.72,183.13h3.91v3.92a3.05,3.05,0,0,1-3.21.72,2.79,2.79,0,0,1-1.12-.8,3.58,3.58,0,0,1-.07-3.35C376.39,183.45,376.55,183.29,376.72,183.13Z"/><path class="cls-4" d="M376.72,187.05h3.91V191a3,3,0,0,1-4,.09A2.88,2.88,0,0,1,376.72,187.05Z"/><path class="cls-5" d="M376.72,191h3.91v3.92a3.08,3.08,0,0,1-3.21.73,2.91,2.91,0,0,1-1.12-.81,3.58,3.58,0,0,1-.07-3.35Z"/><path class="cls-4" d="M376.72,194.88h3.91v3.92a3,3,0,0,1-4,.09A2.9,2.9,0,0,1,376.72,194.88Z"/><path class="cls-5" d="M376.72,198.8h3.91v3.92a3.05,3.05,0,0,1-3.21.72,2.79,2.79,0,0,1-1.12-.8,3.58,3.58,0,0,1-.07-3.35C376.39,199.12,376.55,199,376.72,198.8Z"/><path class="cls-4" d="M376.72,202.72h3.91v3.91a3,3,0,0,1-4,.09A2.88,2.88,0,0,1,376.72,202.72Z"/><path class="cls-5" d="M376.72,206.63h3.91v3.92a3.05,3.05,0,0,1-3.21.72,2.79,2.79,0,0,1-1.12-.8,3.58,3.58,0,0,1-.07-3.35Z"/><path class="cls-4" d="M376.72,210.55h3.91v3.92a3,3,0,0,1-4,.09A2.9,2.9,0,0,1,376.72,210.55Z"/><path class="cls-5" d="M376.72,214.47h3.91v3.91a3.06,3.06,0,0,1-3.21.73,2.79,2.79,0,0,1-1.12-.8,3.58,3.58,0,0,1-.07-3.35C376.39,214.79,376.55,214.63,376.72,214.47Z"/><path class="cls-4" d="M376.72,218.38h3.91v3.92a3,3,0,0,1-4,.09A2.9,2.9,0,0,1,376.72,218.38Z"/><path class="cls-5" d="M376.72,222.3h3.91v3.92a3.05,3.05,0,0,1-3.21.72,2.79,2.79,0,0,1-1.12-.8,3.58,3.58,0,0,1-.07-3.35C376.39,222.63,376.55,222.46,376.72,222.3Z"/><path class="cls-4" d="M376.72,226.22h3.91v3.92a3,3,0,0,1-4,.09A2.9,2.9,0,0,1,376.72,226.22Z"/><path class="cls-5" d="M376.72,230.14h3.91v3.91a3.06,3.06,0,0,1-3.21.73,2.79,2.79,0,0,1-1.12-.8,3.6,3.6,0,0,1-.07-3.36Z"/><path class="cls-4" d="M376.72,234.05h3.91V238a3,3,0,0,1-4,.09A2.9,2.9,0,0,1,376.72,234.05Z"/><path class="cls-5" d="M376.72,238h3.91v3.92a3.05,3.05,0,0,1-3.21.72,2.79,2.79,0,0,1-1.12-.8,3.58,3.58,0,0,1-.07-3.35C376.39,238.3,376.55,238.13,376.72,238Z"/><path class="cls-4" d="M376.72,241.89h3.91v3.91a3,3,0,0,1-4,.1A2.9,2.9,0,0,1,376.72,241.89Z"/><path class="cls-5" d="M376.72,245.8h3.91v3.92a3.06,3.06,0,0,1-3.21.73,2.72,2.72,0,0,1-1.12-.81,3.58,3.58,0,0,1-.07-3.35Z"/><path class="cls-4" d="M376.72,249.72h3.91v3.92a3,3,0,0,1-4,.09A2.9,2.9,0,0,1,376.72,249.72Z"/><path class="cls-5" d="M376.72,253.64h3.91v3.92a3.05,3.05,0,0,1-3.21.72,2.79,2.79,0,0,1-1.12-.8,3.58,3.58,0,0,1-.07-3.35C376.39,254,376.55,253.8,376.72,253.64Z"/><path class="cls-4" d="M376.72,257.56h3.91v3.91a3,3,0,0,1-4,.09A2.88,2.88,0,0,1,376.72,257.56Z"/><path class="cls-5" d="M376.72,261.47h3.91v3.92a3.08,3.08,0,0,1-3.21.73,2.81,2.81,0,0,1-1.12-.81,3.58,3.58,0,0,1-.07-3.35Z"/><path class="cls-4" d="M376.72,265.39h3.91v3.92a3,3,0,0,1-4,.09A2.9,2.9,0,0,1,376.72,265.39Z"/><path class="cls-5" d="M376.72,269.31h3.91v3.92a3.05,3.05,0,0,1-3.21.72,2.79,2.79,0,0,1-1.12-.8,3.58,3.58,0,0,1-.07-3.35C376.39,269.63,376.55,269.47,376.72,269.31Z"/><path class="cls-4" d="M376.72,273.23h3.91v3.91a3,3,0,0,1-4,.09A2.88,2.88,0,0,1,376.72,273.23Z"/><path class="cls-5" d="M376.72,277.14h3.91v3.92a3.05,3.05,0,0,1-3.21.72,2.79,2.79,0,0,1-1.12-.8,3.58,3.58,0,0,1-.07-3.35Z"/><path class="cls-4" d="M376.72,281.06h3.91V285a3,3,0,0,1-4,.09A2.9,2.9,0,0,1,376.72,281.06Z"/><path class="cls-5" d="M376.72,285h3.91v3.91a3.06,3.06,0,0,1-3.21.73,2.89,2.89,0,0,1-1.12-.8,3.58,3.58,0,0,1-.07-3.35C376.39,285.3,376.55,285.14,376.72,285Z"/><path class="cls-4" d="M376.72,288.89h3.91v3.92a3,3,0,0,1-4,.09A2.9,2.9,0,0,1,376.72,288.89Z"/><path class="cls-5" d="M376.72,292.81h3.91v3.92a3.05,3.05,0,0,1-3.21.72,2.79,2.79,0,0,1-1.12-.8,3.58,3.58,0,0,1-.07-3.35Z"/><path class="cls-4" d="M376.72,296.73h3.91v3.92a3,3,0,0,1-4,.09A2.9,2.9,0,0,1,376.72,296.73Z"/><path class="cls-5" d="M376.72,300.65h3.91v3.91a3.06,3.06,0,0,1-3.21.73,2.89,2.89,0,0,1-1.12-.8,3.6,3.6,0,0,1-.07-3.36Z"/><path class="cls-4" d="M376.72,304.56h3.91v3.92a3,3,0,0,1-4,.09A2.9,2.9,0,0,1,376.72,304.56Z"/><path class="cls-5" d="M376.72,308.48h3.91v3.92a3.05,3.05,0,0,1-3.21.72,2.79,2.79,0,0,1-1.12-.8,3.58,3.58,0,0,1-.07-3.35C376.39,308.81,376.55,308.64,376.72,308.48Z"/><path class="cls-4" d="M376.72,312.4h3.91v3.91a3,3,0,0,1-4,.09A2.88,2.88,0,0,1,376.72,312.4Z"/><path class="cls-5" d="M376.72,316.31h3.91v3.92a3.06,3.06,0,0,1-3.21.73,2.81,2.81,0,0,1-1.12-.81,3.58,3.58,0,0,1-.07-3.35Z"/><path class="cls-4" d="M376.72,320.23h3.91v3.92h-3.91A2.69,2.69,0,0,1,376.72,320.23Z"/><path class="cls-4" d="M376.72,332h3.91v3.92a3,3,0,0,1-4,.09A2.9,2.9,0,0,1,376.72,332Z"/><path class="cls-5" d="M376.72,335.9h3.91v3.92a3.05,3.05,0,0,1-3.21.72,2.79,2.79,0,0,1-1.12-.8,3.58,3.58,0,0,1-.07-3.35Z"/><path class="cls-4" d="M376.72,339.82h3.91v3.92a3,3,0,0,1-4,.09A2.9,2.9,0,0,1,376.72,339.82Z"/><path class="cls-5" d="M376.72,343.74h3.91v3.91a3.06,3.06,0,0,1-3.21.73,2.89,2.89,0,0,1-1.12-.8,3.6,3.6,0,0,1-.07-3.36Z"/><path class="cls-4" d="M376.72,347.65h3.91v3.92a3,3,0,0,1-4,.09A2.9,2.9,0,0,1,376.72,347.65Z"/><path class="cls-5" d="M376.72,351.57h3.91v3.92a3.05,3.05,0,0,1-3.21.72,2.79,2.79,0,0,1-1.12-.8,3.58,3.58,0,0,1-.07-3.35C376.39,351.89,376.55,351.73,376.72,351.57Z"/><path class="cls-4" d="M376.72,355.49h3.91v3.91a3,3,0,0,1-4,.09A2.88,2.88,0,0,1,376.72,355.49Z"/><path class="cls-5" d="M376.72,359.4h3.91v3.92a3.08,3.08,0,0,1-3.21.73,2.81,2.81,0,0,1-1.12-.81,3.58,3.58,0,0,1-.07-3.35Z"/><path class="cls-4" d="M376.72,363.32h3.91v3.92a3,3,0,0,1-4,.09A2.9,2.9,0,0,1,376.72,363.32Z"/><path class="cls-5" d="M376.72,367.24h3.91v3.92a3.05,3.05,0,0,1-3.21.72,2.79,2.79,0,0,1-1.12-.8,3.58,3.58,0,0,1-.07-3.35C376.39,367.56,376.55,367.4,376.72,367.24Z"/><path class="cls-4" d="M376.72,371.16h3.91v3.91a3,3,0,0,1-4,.09A2.88,2.88,0,0,1,376.72,371.16Z"/><path class="cls-5" d="M376.72,375.07h3.91V379a3.05,3.05,0,0,1-3.21.72,2.69,2.69,0,0,1-1.12-.8,3.58,3.58,0,0,1-.07-3.35Z"/><path class="cls-4" d="M376.72,379h3.91v3.92a3,3,0,0,1-4,.09A2.9,2.9,0,0,1,376.72,379Z"/><path class="cls-5" d="M376.72,382.91h3.91v3.91a3.06,3.06,0,0,1-3.21.73,2.89,2.89,0,0,1-1.12-.8,3.58,3.58,0,0,1-.07-3.35C376.39,383.23,376.55,383.07,376.72,382.91Z"/><path class="cls-4" d="M376.72,386.82h3.91v3.92a3,3,0,0,1-4,.09A2.9,2.9,0,0,1,376.72,386.82Z"/><path class="cls-5" d="M376.72,390.74h3.91v3.92a3.05,3.05,0,0,1-3.21.72,2.79,2.79,0,0,1-1.12-.8,3.58,3.58,0,0,1-.07-3.35C376.39,391.07,376.55,390.9,376.72,390.74Z"/><path class="cls-4" d="M376.72,394.66h3.91v3.92a3,3,0,0,1-4,.09A2.9,2.9,0,0,1,376.72,394.66Z"/><path class="cls-5" d="M376.72,398.58h3.91v3.91a3.06,3.06,0,0,1-3.21.73,2.89,2.89,0,0,1-1.12-.8,3.6,3.6,0,0,1-.07-3.36Z"/><path class="cls-4" d="M376.72,402.49h3.91v3.92a3,3,0,0,1-4,.09A2.9,2.9,0,0,1,376.72,402.49Z"/><path class="cls-5" d="M376.72,406.41h3.91v3.92a3.05,3.05,0,0,1-3.21.72,2.79,2.79,0,0,1-1.12-.8,3.58,3.58,0,0,1-.07-3.35C376.39,406.74,376.55,406.57,376.72,406.41Z"/><path class="cls-4" d="M376.72,410.33h3.91v3.91a3,3,0,0,1-4,.09A2.88,2.88,0,0,1,376.72,410.33Z"/><path class="cls-5" d="M376.72,414.24h3.91v3.92a3.06,3.06,0,0,1-3.21.73,2.81,2.81,0,0,1-1.12-.81,3.58,3.58,0,0,1-.07-3.35Z"/><path class="cls-4" d="M376.72,418.16h3.91v3.92a3,3,0,0,1-4,.09A2.9,2.9,0,0,1,376.72,418.16Z"/><path class="cls-5" d="M376.72,422.08h3.91V426a3.05,3.05,0,0,1-3.21.72,2.79,2.79,0,0,1-1.12-.8,3.58,3.58,0,0,1-.07-3.35C376.39,422.4,376.55,422.24,376.72,422.08Z"/><path class="cls-4" d="M376.72,426h3.91v3.91a3,3,0,0,1-4,.09A2.88,2.88,0,0,1,376.72,426Z"/><path class="cls-5" d="M376.72,429.91h3.91v3.92a3.08,3.08,0,0,1-3.21.73,2.81,2.81,0,0,1-1.12-.81,3.58,3.58,0,0,1-.07-3.35Z"/><path class="cls-4" d="M376.72,433.83h3.91v3.92a3,3,0,0,1-4,.09A2.9,2.9,0,0,1,376.72,433.83Z"/><path class="cls-5" d="M376.72,437.75h3.91v3.92a3.05,3.05,0,0,1-3.21.72,2.79,2.79,0,0,1-1.12-.8,3.58,3.58,0,0,1-.07-3.35C376.39,438.07,376.55,437.91,376.72,437.75Z"/><path class="cls-4" d="M376.72,441.67h3.91v3.91a3,3,0,0,1-4,.09A2.88,2.88,0,0,1,376.72,441.67Z"/><path class="cls-5" d="M376.72,445.58h3.91v3.92a3.05,3.05,0,0,1-3.21.72,2.79,2.79,0,0,1-1.12-.8,3.58,3.58,0,0,1-.07-3.35Z"/><path class="cls-4" d="M376.72,449.5h3.91v3.92a3,3,0,0,1-4,.09A2.9,2.9,0,0,1,376.72,449.5Z"/><path class="cls-5" d="M376.72,453.42h3.91v3.91a3.06,3.06,0,0,1-3.21.73,2.89,2.89,0,0,1-1.12-.8,3.58,3.58,0,0,1-.07-3.35C376.39,453.74,376.55,453.58,376.72,453.42Z"/><path class="cls-4" d="M376.72,457.33h3.91v3.92a3,3,0,0,1-4,.09A2.9,2.9,0,0,1,376.72,457.33Z"/><path class="cls-5" d="M376.72,461.25h3.91v3.92a3.05,3.05,0,0,1-3.21.72,2.79,2.79,0,0,1-1.12-.8,3.58,3.58,0,0,1-.07-3.35Z"/><path class="cls-4" d="M376.72,465.17h3.91v3.92a3,3,0,0,1-4,.09A2.9,2.9,0,0,1,376.72,465.17Z"/><path class="cls-5" d="M376.72,469.09h3.91V473a3.06,3.06,0,0,1-3.21.73,2.89,2.89,0,0,1-1.12-.8,3.6,3.6,0,0,1-.07-3.36Z"/><path class="cls-4" d="M376.72,473h3.91v3.92a3,3,0,0,1-4,.09A2.9,2.9,0,0,1,376.72,473Z"/><path class="cls-5" d="M376.72,476.92h3.91v3.92a3.05,3.05,0,0,1-3.21.72,2.79,2.79,0,0,1-1.12-.8,3.58,3.58,0,0,1-.07-3.35C376.39,477.25,376.55,477.08,376.72,476.92Z"/><path class="cls-4" d="M376.72,480.84h3.91v3.91a3,3,0,0,1-4,.09A2.88,2.88,0,0,1,376.72,480.84Z"/><path class="cls-5" d="M376.72,484.75h3.91v3.92a3.06,3.06,0,0,1-3.21.73,2.81,2.81,0,0,1-1.12-.81,3.58,3.58,0,0,1-.07-3.35Z"/><path class="cls-4" d="M376.72,488.67h3.91v3.92a3,3,0,0,1-4,.09A2.9,2.9,0,0,1,376.72,488.67Z"/><path class="cls-5" d="M376.72,492.59h3.91v3.92a3.05,3.05,0,0,1-3.21.72,2.79,2.79,0,0,1-1.12-.8,3.58,3.58,0,0,1-.07-3.35Z"/><path class="cls-4" d="M376.72,496.51h3.91v3.91h-3.91C375.75,499.12,375.53,497.81,376.72,496.51Z"/><path class="cls-8" d="M127.71,86.18H122.8c-1.1,1-.06,2.46-.64,3.55-.34.59-.88.28-1.57.44V79.71l3.74-3.24h2.35l3.37,3.9v9.3c-.34.59-.87.37-1.34.44C127.39,89.05,128.94,87.24,127.71,86.18Z"/><path class="cls-2" d="M155.42,80.63v9.5c-2.49-1.24-4.76.56-7.43-.25l-2.14-2.42V84.59l2.73-2.27c1.31,0,3.14-.47,4.8.68.82-1.2-.32-1.67-1.16-2.7h-4.37V78.49h5.43Z"/><path class="cls-2" d="M235.82,84.71l2.48-2.48c1.67.41,3.6-1,5,1.13.83-1.71-.31-2.13-1-3h-3.83c-.82-.48-.64-1-.7-1.72,1.8-.73,3.71,0,5.31-.39l2.42,2.43v9c-1.07,1.08-1.64,0-2.32-.61-1.89.95-1.89.95-4.92.94l-2.42-2.43Z"/><path class="cls-2" d="M173.08,80.85v8.92c-1,.67-1.59.24-2.1-.47-1.49,1.27-3.26.63-5.16.87l-2.32-3V84.61l2.26-2.25c1.74-.06,3.64-.66,5.37,1,.33-1.76-.68-2.22-1.42-3.09h-4.19l-.15-1.68H171C171.49,79.12,172.26,80,173.08,80.85Z"/><path class="cls-2" d="M224.24,81.59l2.31-2.24H231l2.86,2.36c.05,1.55.11,2.72-1.24,3.61h-6.43c-.54,1.59.72,1.92,1,2.47,2.42,1.54,4.24-1.42,6.16-.57L230.57,90h-4.19l-2.14-2.13Z"/><path class="cls-2" d="M207.89,90.07H203.1l-2.5-2.38V78.82L203,76.39h4.9c.8,1.12,2.4,1.69,2.53,3.23-.38.6-.81.74-1.72.63l-1-1.83c-2.31-.06-4-.58-5.09,1.42v6.77c1,2,2.56,1.48,4,1.53,1.25-.24,1.49-2.17,3-2,.51.22.84.58.67,1.1C210,88.58,208.67,89.14,207.89,90.07Z"/><path class="cls-9" d="M262.23,87.48v-5.8l2.87-2.26h4.61L272,82.19v5.47l-2.42,2.43h-4.95Z"/><path class="cls-2" d="M274.14,79.58c1.1-.63,1.62,0,2.17.62,1.43-1.42,3.25-.66,5-1l2.36,2.69v7.72c-.46.62-1,.4-1.74.4v-7.3c-2.87-1.9-3-1.9-6-.15V90h-1.8Z"/><path class="cls-8" d="M137.58,88.05l3.32-3.45V79.81a1.27,1.27,0,0,1,1.82-.2v5.81L138,90.1h-1l-4.84-4.87V79.48l1.64-.16v5.23Z"/><path class="cls-10" d="M212.5,79.42h1.28c.9.45.07,1.44,1.11,1.76,1.18-1.34,2.52-2.84,5.25-1.19.33.48,2,1,2,2.67l-.79.58c-1.56.19-1.73-1.83-2.92-1.94l-3.53,4-.78-.61v5.12a1.4,1.4,0,0,1-1.66,0Z"/><path class="cls-2" d="M177.41,81.47l2.05-2.06h3c.78,1,2.52,1.52,2.46,3.47-2.17,1.25-2.45-1.79-3.86-1.62l-3.92,4.16v4c-.48.83-1,.64-1.47.68-.18-.24-.51-.48-.52-.73,0-3.23,0-6.47,0-9.61C177,78.58,177.07,79.9,177.41,81.47Z"/><path class="cls-11" d="M156.51,80.23c1.19-1,.8-2.54,1.37-3.75,2.51-.48,1.24,1.56,1.66,2.35.34,1,2.36-.18,1.9,1.47,0,1.52-1.39.57-1.85,1.44V86.9l1.5.94c.47,1.31.46,1.88-.36,2.32-1.52-.15-2.09-1.7-3.12-2.46C157.2,85.18,158.32,82.54,156.51,80.23Z"/><path class="cls-11" d="M247.71,87.88c-.59-2.57.75-5.1-1.27-7.36a8.55,8.55,0,0,0,1.25-4c2.73-.44,1.43,1.61,1.94,2.47.49.67,2.1,0,1.84,1.59,0,1.35-1.48.27-1.88,1.26v4.88c.26,1,2.1,1.22,1.88,2.79-.23.47-.7.87-1.1.59C249.35,89.35,248.43,88.48,247.71,87.88Z"/><path class="cls-2" d="M253.49,81.38h3.72V87l2.05,1.54c.08.83,0,1.28-.46,1.6-1.81.17-2.12-1.79-3.37-2.25C255.24,85.69,255.89,83.55,253.49,81.38Z"/><path class="cls-2" d="M257.33,79.24h-1.48c-.67-.42-.4-.94-.48-1.48C256.61,77,257.42,77.05,257.33,79.24Z"/><path class="cls-7" d="M16.63,332v-7.83a3.15,3.15,0,0,1,4.12.06c1.74,2.53,1.41,5.18.23,7.55C19.25,333,17.94,332.94,16.63,332Z"/><path class="cls-5" d="M16.63,332h3.56c.87-2.46,0-5,.48-7.45-1.48-.71-2.79-.21-4-.38v-3.92a15.12,15.12,0,0,0,1.75-1.74c0-1.16-1.21-1.41-1.75-2.18V312.4a16.9,16.9,0,0,0,1.75-1.74c0-1.16-1.21-1.41-1.75-2.18v-3.92a15.12,15.12,0,0,0,1.75-1.74c0-1.16-1.21-1.41-1.75-2.17v-3.92A16,16,0,0,0,18.38,295c0-1.16-1.21-1.41-1.75-2.18v-3.92a15.12,15.12,0,0,0,1.75-1.74c0-1.16-1.21-1.41-1.75-2.17v-3.92a15.12,15.12,0,0,0,1.75-1.74c0-1.16-1.21-1.41-1.75-2.18v-3.91a16.06,16.06,0,0,0,1.75-1.75c0-1.16-1.21-1.41-1.75-2.17v-3.92a15.12,15.12,0,0,0,1.75-1.74c0-1.16-1.21-1.41-1.75-2.18v-3.91a16.9,16.9,0,0,0,1.75-1.74c0-1.16-1.21-1.41-1.75-2.18v-3.92A17.84,17.84,0,0,0,18.38,248c0-1.17-1.21-1.42-1.75-2.19v-3.91a17.84,17.84,0,0,0,1.75-1.73c0-1.17-1.21-1.42-1.75-2.19v-3.92a18.91,18.91,0,0,0,1.75-1.72c0-1.18-1.21-1.43-1.75-2.19v-3.92a17.84,17.84,0,0,0,1.75-1.73c0-1.17-1.21-1.42-1.75-2.19v-3.92a17.72,17.72,0,0,0,1.75-1.72c0-1.18-1.21-1.43-1.75-2.19v-3.92a17.84,17.84,0,0,0,1.75-1.73c0-1.17-1.21-1.42-1.75-2.19v-3.91A19,19,0,0,0,18.38,201c0-1.18-1.21-1.42-1.75-2.19v-3.92a17.84,17.84,0,0,0,1.75-1.73c0-1.17-1.21-1.42-1.75-2.19v-3.91a17.84,17.84,0,0,0,1.75-1.73c0-1.17-1.21-1.42-1.75-2.19v-3.92a18.91,18.91,0,0,0,1.75-1.72c0-1.18-1.21-1.43-1.75-2.19v-3.92a17.84,17.84,0,0,0,1.75-1.73c0-1.17-1.21-1.42-1.75-2.19v-3.92a18.91,18.91,0,0,0,1.75-1.72c0-1.18-1.21-1.43-1.75-2.19v-3.92h3.92a3.2,3.2,0,0,1,3.75-.46,2.89,2.89,0,0,1,1,1.32,20.47,20.47,0,0,1,.62,4.4c.22,16.64.1,33.26.1,49.89q0,137,0,273.89c0,3.42.07,6.84-.08,10.26-.24,1.47-.07,3-.59,4.43a3.25,3.25,0,0,1-1,1.38,3.2,3.2,0,0,1-3.85-.4H16.63v-3.91a16.9,16.9,0,0,0,1.75-1.74c0-1.17-1.21-1.41-1.75-2.18v-3.92a15.12,15.12,0,0,0,1.75-1.74c0-1.16-1.21-1.41-1.75-2.18v-3.91a16.9,16.9,0,0,0,1.75-1.74c0-1.16-1.21-1.41-1.75-2.18V473a15.12,15.12,0,0,0,1.75-1.74c0-1.16-1.21-1.41-1.75-2.17v-3.92a16,16,0,0,0,1.75-1.74c0-1.16-1.21-1.41-1.75-2.18v-3.92a15.12,15.12,0,0,0,1.75-1.74c0-1.16-1.21-1.41-1.75-2.17V449.5a15.12,15.12,0,0,0,1.75-1.74c0-1.16-1.21-1.41-1.75-2.18v-3.91a16.06,16.06,0,0,0,1.75-1.75c0-1.16-1.21-1.41-1.75-2.17v-3.92a15.12,15.12,0,0,0,1.75-1.74c0-1.16-1.21-1.41-1.75-2.18V426a16.9,16.9,0,0,0,1.75-1.74c0-1.16-1.21-1.41-1.75-2.18v-3.92a15.12,15.12,0,0,0,1.75-1.74c0-1.16-1.21-1.41-1.75-2.18v-3.91a16.9,16.9,0,0,0,1.75-1.74c0-1.16-1.21-1.41-1.75-2.18v-3.92a15.12,15.12,0,0,0,1.75-1.74c0-1.16-1.21-1.41-1.75-2.17v-3.92a16,16,0,0,0,1.75-1.74c0-1.16-1.21-1.41-1.75-2.18v-3.92a15.12,15.12,0,0,0,1.75-1.74c0-1.16-1.21-1.41-1.75-2.17V379a15.12,15.12,0,0,0,1.75-1.74c0-1.16-1.21-1.41-1.75-2.18v-3.91a16.06,16.06,0,0,0,1.75-1.75c0-1.16-1.21-1.41-1.75-2.17v-3.92a15.12,15.12,0,0,0,1.75-1.74c0-1.16-1.21-1.41-1.75-2.18v-3.91a16.9,16.9,0,0,0,1.75-1.74c0-1.16-1.21-1.41-1.75-2.18v-3.92a15.12,15.12,0,0,0,1.75-1.74c0-1.16-1.21-1.41-1.75-2.17v-3.92a16,16,0,0,0,1.75-1.74c0-1.16-1.21-1.41-1.75-2.18Z"/><path class="cls-7" d="M16.63,159.63H20c1.17,1.09.09,2.4.63,3.54-1.49.7-2.79.21-4,.37Z"/><path class="cls-7" d="M16.63,167.46H20c1.17,1.09.09,2.41.63,3.54-1.49.7-2.79.21-4,.38Z"/><path class="cls-7" d="M16.63,175.3H20c1.17,1.09.09,2.4.63,3.54-1.49.7-2.79.2-4,.37Z"/><path class="cls-7" d="M16.63,183.13H20c1.17,1.09.09,2.41.63,3.54-1.49.7-2.79.21-4,.38Z"/><path class="cls-7" d="M16.63,191H20c1.17,1.1.09,2.41.63,3.55-1.49.69-2.79.2-4,.37Z"/><path class="cls-7" d="M16.63,198.8H20c1.17,1.09.09,2.41.63,3.54-1.49.7-2.79.21-4,.38Z"/><path class="cls-7" d="M16.63,206.63H20c1.17,1.1.09,2.41.63,3.55-1.49.69-2.79.2-4,.37Z"/><path class="cls-7" d="M16.63,214.47H20c1.17,1.09.09,2.4.63,3.54-1.49.7-2.79.21-4,.37Z"/><path class="cls-7" d="M16.63,222.3H20c1.17,1.09.09,2.41.63,3.55-1.49.69-2.79.2-4,.37Z"/><path class="cls-7" d="M16.63,230.14H20c1.17,1.09.09,2.4.63,3.54-1.49.7-2.79.2-4,.37Z"/><path class="cls-7" d="M16.63,238H20c1.17,1.09.09,2.41.63,3.54-1.49.7-2.79.21-4,.38Z"/><path class="cls-7" d="M16.63,245.8H20c1.17,1.1.09,2.41.63,3.55-1.49.7-2.79.2-4,.37Z"/><path class="cls-7" d="M16.63,253.64H20c1.17,1.09.09,2.41.63,3.54-1.49.7-2.79.21-4,.38Z"/><path class="cls-7" d="M16.63,261.47H20c1.17,1.1.09,2.41.63,3.55-1.49.69-2.79.2-4,.37Z"/><path class="cls-7" d="M16.63,269.31H20c1.17,1.09.09,2.41.63,3.54-1.49.7-2.79.21-4,.38Z"/><path class="cls-7" d="M16.63,277.14H20c1.17,1.1.09,2.41.63,3.55-1.49.69-2.79.2-4,.37Z"/><path class="cls-7" d="M16.63,285H20c1.17,1.09.09,2.4.63,3.54-1.49.7-2.79.21-4,.37Z"/><path class="cls-7" d="M16.63,292.81H20c1.17,1.09.09,2.41.63,3.55-1.49.69-2.79.2-4,.37Z"/><path class="cls-7" d="M16.63,300.65H20c1.17,1.09.09,2.4.63,3.54-1.49.7-2.79.2-4,.37Z"/><path class="cls-7" d="M16.63,308.48H20c1.17,1.09.09,2.41.63,3.54-1.49.7-2.79.21-4,.38Z"/><path class="cls-7" d="M16.63,316.31H20c1.17,1.1.09,2.41.63,3.55-1.49.7-2.79.2-4,.37Z"/><path class="cls-7" d="M16.63,335.9H20c1.17,1.09.09,2.41.63,3.54-1.49.7-2.79.21-4,.38Z"/><path class="cls-7" d="M16.63,343.74H20c1.17,1.09.09,2.4.63,3.54-1.49.7-2.79.2-4,.37Z"/><path class="cls-7" d="M16.63,351.57H20c1.17,1.09.09,2.41.63,3.54-1.49.7-2.79.21-4,.38Z"/><path class="cls-7" d="M16.63,359.4H20c1.17,1.1.09,2.41.63,3.55-1.49.69-2.79.2-4,.37Z"/><path class="cls-7" d="M16.63,367.24H20c1.17,1.09.09,2.41.63,3.54-1.49.7-2.79.21-4,.38Z"/><path class="cls-7" d="M16.63,375.07H20c1.17,1.1.09,2.41.63,3.55-1.49.69-2.79.2-4,.37Z"/><path class="cls-7" d="M16.63,382.91H20c1.17,1.09.09,2.4.63,3.54-1.49.7-2.79.21-4,.37Z"/><path class="cls-7" d="M16.63,390.74H20c1.17,1.09.09,2.41.63,3.55-1.49.69-2.79.2-4,.37Z"/><path class="cls-7" d="M16.63,398.58H20c1.17,1.09.09,2.4.63,3.54-1.49.7-2.79.2-4,.37Z"/><path class="cls-7" d="M16.63,406.41H20c1.17,1.09.09,2.41.63,3.54-1.49.7-2.79.21-4,.38Z"/><path class="cls-7" d="M16.63,414.24H20c1.17,1.1.09,2.41.63,3.55-1.49.7-2.79.2-4,.37Z"/><path class="cls-7" d="M16.63,422.08H20c1.17,1.09.09,2.41.63,3.54-1.49.7-2.79.21-4,.38Z"/><path class="cls-7" d="M16.63,429.91H20c1.17,1.1.09,2.41.63,3.55-1.49.69-2.79.2-4,.37Z"/><path class="cls-7" d="M16.63,437.75H20c1.17,1.09.09,2.41.63,3.54-1.49.7-2.79.21-4,.38Z"/><path class="cls-7" d="M16.63,445.58H20c1.17,1.1.09,2.41.63,3.55-1.49.69-2.79.2-4,.37Z"/><path class="cls-7" d="M16.63,453.42H20c1.17,1.09.09,2.4.63,3.54-1.49.7-2.79.21-4,.37Z"/><path class="cls-7" d="M16.63,461.25H20c1.17,1.09.09,2.41.63,3.55-1.49.69-2.79.2-4,.37Z"/><path class="cls-7" d="M16.63,469.09H20c1.17,1.09.09,2.4.63,3.54-1.49.7-2.79.2-4,.37Z"/><path class="cls-7" d="M16.63,476.92H20c1.17,1.09.09,2.41.63,3.54-1.49.7-2.79.21-4,.38Z"/><path class="cls-7" d="M16.63,484.75H20c1.17,1.1.09,2.41.63,3.55-1.49.7-2.79.2-4,.37Z"/><path class="cls-7" d="M16.63,492.59H20c1.17,1.09.09,2.41.63,3.54-1.49.7-2.79.21-4,.38Z"/><path class="cls-5" d="M368.89,147.87v3.92a3.22,3.22,0,0,1,.46,3.76,3,3,0,0,1-1.33,1,21,21,0,0,1-4.4.62c-16,.22-32,.1-47.94.1q-139.19,0-278.37,0a69.86,69.86,0,0,1-8.31-.17,6.37,6.37,0,0,1-4.54-1.41,2.87,2.87,0,0,1,0-3.92v-3.92h3.92a15.12,15.12,0,0,0,1.74,1.75c1.15,0,1.4-1.21,2.17-1.75H36.2a16.8,16.8,0,0,0,1.73,1.75c1.17,0,1.42-1.21,2.19-1.75H44a16.8,16.8,0,0,0,1.73,1.75c1.17,0,1.42-1.21,2.19-1.75h3.91a16.8,16.8,0,0,0,1.73,1.75c1.17,0,1.42-1.21,2.18-1.75h3.92a15.12,15.12,0,0,0,1.74,1.75c1.16,0,1.41-1.21,2.17-1.75h3.92a15.12,15.12,0,0,0,1.74,1.75c1.15,0,1.4-1.21,2.17-1.75h3.91a16.9,16.9,0,0,0,1.74,1.75c1.16,0,1.41-1.21,2.18-1.75h3.91a15.12,15.12,0,0,0,1.74,1.75c1.16,0,1.41-1.21,2.18-1.75H91a15.12,15.12,0,0,0,1.74,1.75c1.16,0,1.41-1.21,2.17-1.75h3.92a15.12,15.12,0,0,0,1.74,1.75c1.16,0,1.41-1.21,2.17-1.75h3.92a15.86,15.86,0,0,0,1.73,1.75c1.16,0,1.41-1.21,2.18-1.75h3.91a16.9,16.9,0,0,0,1.74,1.75c1.16,0,1.41-1.21,2.18-1.75h3.91a15.12,15.12,0,0,0,1.74,1.75c1.16,0,1.41-1.21,2.17-1.75h3.92a17.74,17.74,0,0,0,1.72,1.75c1.18,0,1.43-1.21,2.19-1.75H138a17.74,17.74,0,0,0,1.72,1.75c1.18,0,1.42-1.21,2.19-1.75h3.91a17.85,17.85,0,0,0,1.73,1.75c1.17,0,1.42-1.21,2.19-1.75h3.91a16.8,16.8,0,0,0,1.73,1.75c1.17,0,1.42-1.21,2.19-1.75h3.91a16.8,16.8,0,0,0,1.73,1.75c1.17,0,1.42-1.21,2.18-1.75h3.92a17.74,17.74,0,0,0,1.72,1.75c1.18,0,1.43-1.21,2.19-1.75h3.92a16.69,16.69,0,0,0,1.72,1.75c1.18,0,1.42-1.21,2.19-1.75h3.91a16.8,16.8,0,0,0,1.73,1.75c1.17,0,1.42-1.21,2.19-1.75h3.91c3.75,3.6,4.08,3.6,7.83,0h3.91a16.8,16.8,0,0,0,1.73,1.75c1.17,0,1.42-1.21,2.19-1.75h3.91a16.8,16.8,0,0,0,1.73,1.75c1.17,0,1.42-1.21,2.19-1.75h3.91a16.8,16.8,0,0,0,1.73,1.75c1.17,0,1.42-1.21,2.18-1.75H228a17.74,17.74,0,0,0,1.72,1.75c1.18,0,1.43-1.21,2.19-1.75h3.92a16.69,16.69,0,0,0,1.72,1.75c1.17,0,1.42-1.21,2.19-1.75h3.91a16.8,16.8,0,0,0,1.73,1.75c1.17,0,1.42-1.21,2.19-1.75h3.91a16.8,16.8,0,0,0,1.73,1.75c1.17,0,1.42-1.21,2.19-1.75h3.91a16.8,16.8,0,0,0,1.73,1.75c1.17,0,1.42-1.21,2.18-1.75h3.92a17.74,17.74,0,0,0,1.72,1.75c1.18,0,1.43-1.21,2.19-1.75H275a16.69,16.69,0,0,0,1.72,1.75c1.17,0,1.42-1.21,2.19-1.75h3.91a16.8,16.8,0,0,0,1.73,1.75c1.17,0,1.42-1.21,2.19-1.75h3.91a16.8,16.8,0,0,0,1.73,1.75c1.17,0,1.42-1.21,2.18-1.75h3.92a17.74,17.74,0,0,0,1.72,1.75c1.18,0,1.43-1.21,2.19-1.75h3.92a17.74,17.74,0,0,0,1.72,1.75c1.18,0,1.42-1.21,2.19-1.75h3.91a17.85,17.85,0,0,0,1.73,1.75c1.17,0,1.42-1.21,2.19-1.75h3.91a16.8,16.8,0,0,0,1.73,1.75c1.17,0,1.42-1.21,2.19-1.75h3.91a16.8,16.8,0,0,0,1.73,1.75c1.17,0,1.42-1.21,2.18-1.75h3.92a17.74,17.74,0,0,0,1.72,1.75c1.18,0,1.43-1.21,2.19-1.75h3.92a16.69,16.69,0,0,0,1.72,1.75c1.17,0,1.42-1.21,2.19-1.75h3.91a16.8,16.8,0,0,0,1.73,1.75c1.17,0,1.42-1.21,2.19-1.75h3.91a16.8,16.8,0,0,0,1.73,1.75c1.17,0,1.42-1.21,2.19-1.75Z"/><circle class="cls-2" cx="22.51" cy="153.75" r="2.77"/><path class="cls-2" d="M20.55,500.42h3.91a2.7,2.7,0,0,1,0,3.92H20.55Z"/><path class="cls-5" d="M24.46,504.34v-3.92A6.51,6.51,0,0,1,29,499a22.11,22.11,0,0,1,3.9-.18q163.34,0,326.68,0c1.3,0,2.61,0,3.91.07,1.46.24,3,.08,4.42.59a2.83,2.83,0,0,1,1,4.83v3.92H365a17.84,17.84,0,0,0-1.73-1.75c-1.17,0-1.42,1.21-2.19,1.75h-3.91a17.84,17.84,0,0,0-1.73-1.75c-1.17,0-1.42,1.21-2.19,1.75h-3.91a17.84,17.84,0,0,0-1.73-1.75c-1.17,0-1.42,1.21-2.18,1.75h-3.92a18.91,18.91,0,0,0-1.72-1.75c-1.18,0-1.43,1.21-2.19,1.75h-3.92a17.72,17.72,0,0,0-1.72-1.75c-1.17,0-1.42,1.21-2.19,1.75h-3.91a17.84,17.84,0,0,0-1.73-1.75c-1.17,0-1.42,1.21-2.19,1.75H318a17.84,17.84,0,0,0-1.73-1.75c-1.17,0-1.42,1.21-2.19,1.75h-3.91a17.84,17.84,0,0,0-1.73-1.75c-1.17,0-1.42,1.21-2.18,1.75h-3.92a18.91,18.91,0,0,0-1.72-1.75c-1.18,0-1.43,1.21-2.19,1.75h-3.92a17.72,17.72,0,0,0-1.72-1.75c-1.17,0-1.42,1.21-2.19,1.75H286.7a17.84,17.84,0,0,0-1.73-1.75c-1.17,0-1.42,1.21-2.19,1.75h-3.91a17.84,17.84,0,0,0-1.73-1.75c-1.17,0-1.42,1.21-2.18,1.75H271a18.91,18.91,0,0,0-1.72-1.75c-1.18,0-1.43,1.21-2.19,1.75h-3.92a18.91,18.91,0,0,0-1.72-1.75c-1.18,0-1.42,1.21-2.19,1.75h-3.91a17.84,17.84,0,0,0-1.73-1.75c-1.17,0-1.42,1.21-2.19,1.75h-3.91a17.84,17.84,0,0,0-1.73-1.75c-1.17,0-1.42,1.21-2.19,1.75h-3.91a17.84,17.84,0,0,0-1.73-1.75c-1.17,0-1.42,1.21-2.18,1.75H231.9a18.91,18.91,0,0,0-1.72-1.75c-1.18,0-1.43,1.21-2.19,1.75h-3.92a17.72,17.72,0,0,0-1.72-1.75c-1.18,0-1.42,1.21-2.19,1.75h-3.91a17.84,17.84,0,0,0-1.73-1.75c-1.17,0-1.42,1.21-2.19,1.75h-3.91a17.84,17.84,0,0,0-1.73-1.75c-1.17,0-1.42,1.21-2.19,1.75h-3.91c-3.75-3.6-4.08-3.6-7.83,0h-3.91a17.84,17.84,0,0,0-1.73-1.75c-1.17,0-1.42,1.21-2.19,1.75H181a17.84,17.84,0,0,0-1.73-1.75c-1.17,0-1.42,1.21-2.18,1.75h-3.92a18.91,18.91,0,0,0-1.72-1.75c-1.18,0-1.43,1.21-2.19,1.75h-3.92a17.72,17.72,0,0,0-1.72-1.75c-1.17,0-1.42,1.21-2.19,1.75h-3.91a17.84,17.84,0,0,0-1.73-1.75c-1.17,0-1.42,1.21-2.19,1.75h-3.91a17.84,17.84,0,0,0-1.73-1.75c-1.17,0-1.42,1.21-2.19,1.75h-3.91a17.84,17.84,0,0,0-1.73-1.75c-1.17,0-1.42,1.21-2.18,1.75h-3.92a18.91,18.91,0,0,0-1.72-1.75c-1.18,0-1.42,1.21-2.19,1.75h-3.92a15.86,15.86,0,0,0-1.73-1.75c-1.16,0-1.41,1.21-2.18,1.75H118.4a17.84,17.84,0,0,0-1.73-1.75c-1.17,0-1.42,1.21-2.19,1.75h-3.91a17.84,17.84,0,0,0-1.73-1.75c-1.17,0-1.42,1.21-2.18,1.75h-3.92a18.91,18.91,0,0,0-1.72-1.75c-1.18,0-1.43,1.21-2.19,1.75H94.91a18.91,18.91,0,0,0-1.72-1.75c-1.18,0-1.42,1.21-2.19,1.75H87.09a17.84,17.84,0,0,0-1.73-1.75c-1.17,0-1.42,1.21-2.19,1.75H79.26a17.84,17.84,0,0,0-1.73-1.75c-1.17,0-1.42,1.21-2.19,1.75H71.43a17.84,17.84,0,0,0-1.73-1.75c-1.17,0-1.42,1.21-2.18,1.75H63.6a18.91,18.91,0,0,0-1.72-1.75c-1.18,0-1.43,1.21-2.19,1.75H55.77A15.12,15.12,0,0,0,54,506.51c-1.15,0-1.4,1.21-2.17,1.75H48a16.9,16.9,0,0,0-1.74-1.75c-1.16,0-1.41,1.21-2.18,1.75H40.12a16,16,0,0,0-1.74-1.75c-1.16,0-1.41,1.21-2.18,1.75H32.29a15.12,15.12,0,0,0-1.74-1.75c-1.16,0-1.41,1.21-2.17,1.75H24.46Z"/><path class="cls-7" d="M200.59,147.87v3.47c-1.11.9-2.45.33-3.67.43s-2.55,0-3.84,0c-.65-1.36-.15-2.67-.32-3.92Z"/><path class="cls-7" d="M32.29,147.87v3.47c-1.12.81-2.37.4-3.65.33-.59-1.25-.1-2.55-.26-3.8Z"/><path class="cls-7" d="M40.12,147.87v3.47c-1.12.81-2.37.4-3.66.33-.58-1.25-.09-2.55-.26-3.8Z"/><path class="cls-7" d="M48,147.87v3.47c-1.13.81-2.37.4-3.66.33-.58-1.25-.09-2.55-.26-3.8Z"/><path class="cls-7" d="M55.77,147.87v3.47c-1.12.81-2.37.4-3.65.33-.58-1.25-.09-2.55-.26-3.8Z"/><path class="cls-7" d="M63.6,147.87v3.47c-1.12.81-2.37.4-3.65.33-.59-1.25-.09-2.55-.26-3.8Z"/><path class="cls-7" d="M71.43,147.87v3.42c-1.09,1.16-2.41.09-3.54.62-.7-1.49-.21-2.79-.37-4Z"/><path class="cls-7" d="M79.26,147.87v3.42c-1.1,1.16-2.41.09-3.55.62-.69-1.49-.2-2.79-.37-4Z"/><path class="cls-7" d="M87.09,147.87v3.42c-1.1,1.16-2.41.09-3.55.62-.69-1.49-.2-2.79-.37-4Z"/><path class="cls-7" d="M94.91,147.87v3.42c-1.09,1.16-2.4.09-3.54.62-.69-1.49-.2-2.79-.37-4Z"/><path class="cls-7" d="M102.74,147.87v3.42c-1.09,1.16-2.4.09-3.54.62-.7-1.49-.2-2.79-.37-4Z"/><path class="cls-7" d="M110.57,147.87v3.42c-1.09,1.16-2.41.09-3.54.62-.7-1.49-.21-2.79-.37-4Z"/><path class="cls-7" d="M118.4,147.87v3.42c-1.1,1.16-2.41.09-3.55.62-.69-1.49-.2-2.79-.37-4Z"/><path class="cls-7" d="M126.22,147.87v3.42c-1.09,1.16-2.4.09-3.54.62-.69-1.49-.2-2.79-.37-4Z"/><path class="cls-7" d="M134.05,147.87v3.42c-1.09,1.16-2.4.09-3.54.62-.69-1.49-.2-2.79-.37-4Z"/><path class="cls-7" d="M141.88,147.87v3.42c-1.09,1.16-2.4.09-3.54.62-.7-1.49-.2-2.79-.37-4Z"/><path class="cls-7" d="M149.71,147.87v3.42c-1.09,1.16-2.41.09-3.54.62-.7-1.49-.21-2.79-.38-4Z"/><path class="cls-7" d="M157.54,147.87v3.42c-1.1,1.16-2.41.09-3.55.62-.69-1.49-.2-2.79-.37-4Z"/><path class="cls-7" d="M165.36,147.87v3.42c-1.09,1.16-2.4.09-3.54.62-.69-1.49-.2-2.79-.37-4Z"/><path class="cls-7" d="M173.19,147.87v3.42c-1.09,1.16-2.4.09-3.54.62-.7-1.49-.2-2.79-.37-4Z"/><path class="cls-7" d="M181,147.87v3.42c-1.09,1.16-2.4.09-3.54.62-.7-1.49-.21-2.79-.37-4Z"/><path class="cls-7" d="M188.85,147.87v3.42c-1.09,1.16-2.41.09-3.54.62-.7-1.49-.21-2.79-.38-4Z"/><path class="cls-7" d="M208.42,147.87v3.42c-1.09,1.16-2.41.09-3.54.62-.7-1.49-.21-2.79-.38-4Z"/><path class="cls-7" d="M216.25,147.87v3.42c-1.1,1.16-2.41.09-3.55.62-.69-1.49-.2-2.79-.37-4Z"/><path class="cls-7" d="M224.07,147.87v3.42c-1.09,1.16-2.4.09-3.54.62-.69-1.49-.2-2.79-.37-4Z"/><path class="cls-7" d="M231.9,147.87v3.42c-1.09,1.16-2.4.09-3.54.62-.7-1.49-.2-2.79-.37-4Z"/><path class="cls-7" d="M239.73,147.87v3.42c-1.09,1.16-2.41.09-3.54.62-.7-1.49-.21-2.79-.37-4Z"/><path class="cls-7" d="M247.56,147.87v3.42c-1.1,1.16-2.41.09-3.55.62-.69-1.49-.2-2.79-.37-4Z"/><path class="cls-7" d="M255.39,147.87v3.42c-1.1,1.16-2.41.09-3.55.62-.69-1.49-.2-2.79-.37-4Z"/><path class="cls-7" d="M263.21,147.87v3.42c-1.09,1.16-2.4.09-3.54.62-.69-1.49-.2-2.79-.37-4Z"/><path class="cls-7" d="M271,147.87v3.42c-1.09,1.16-2.4.09-3.54.62-.7-1.49-.2-2.79-.37-4Z"/><path class="cls-7" d="M278.87,147.87v3.42c-1.09,1.16-2.41.09-3.54.62-.7-1.49-.21-2.79-.37-4Z"/><path class="cls-7" d="M286.7,147.87v3.42c-1.1,1.16-2.41.09-3.55.62-.69-1.49-.2-2.79-.37-4Z"/><path class="cls-7" d="M294.52,147.87v3.42c-1.09,1.16-2.4.09-3.54.62-.69-1.49-.2-2.79-.37-4Z"/><path class="cls-7" d="M302.35,147.87v3.42c-1.09,1.16-2.4.09-3.54.62-.69-1.49-.2-2.79-.37-4Z"/><path class="cls-7" d="M310.18,147.87v3.42c-1.09,1.16-2.4.09-3.54.62-.7-1.49-.21-2.79-.37-4Z"/><path class="cls-7" d="M318,147.87v3.42c-1.09,1.16-2.41.09-3.54.62-.7-1.49-.21-2.79-.38-4Z"/><path class="cls-7" d="M325.84,147.87v3.42c-1.1,1.16-2.41.09-3.55.62-.69-1.49-.2-2.79-.37-4Z"/><path class="cls-7" d="M333.66,147.87v3.42c-1.09,1.16-2.4.09-3.54.62-.69-1.49-.2-2.79-.37-4Z"/><path class="cls-7" d="M341.49,147.87v3.42c-1.09,1.16-2.4.09-3.54.62-.7-1.49-.2-2.79-.37-4Z"/><path class="cls-7" d="M349.32,147.87v3.42c-1.09,1.16-2.4.09-3.54.62-.7-1.49-.21-2.79-.37-4Z"/><path class="cls-7" d="M357.15,147.87v3.42c-1.09,1.16-2.41.09-3.54.62-.7-1.49-.21-2.79-.38-4Z"/><path class="cls-7" d="M365,147.87v3.42c-1.1,1.16-2.41.09-3.55.62-.69-1.49-.2-2.79-.37-4Z"/><path class="cls-2" d="M368.89,155.71v-3.92h3.91v3.92A2.69,2.69,0,0,1,368.89,155.71Z"/><path class="cls-5" d="M368.89,155.71h7.83v3.92a15.12,15.12,0,0,0-1.75,1.74c0,1.16,1.21,1.41,1.75,2.17v3.92A15.12,15.12,0,0,0,375,169.2c0,1.16,1.21,1.41,1.75,2.18v3.92A15.12,15.12,0,0,0,375,177c0,1.16,1.21,1.41,1.75,2.17v3.92a15.12,15.12,0,0,0-1.75,1.74c0,1.16,1.21,1.41,1.75,2.18V191a16.06,16.06,0,0,0-1.75,1.75c0,1.16,1.21,1.4,1.75,2.17v3.92a15.12,15.12,0,0,0-1.75,1.74c0,1.16,1.21,1.41,1.75,2.18v3.91a16.9,16.9,0,0,0-1.75,1.74c0,1.16,1.21,1.41,1.75,2.18v3.92a15.12,15.12,0,0,0-1.75,1.74c0,1.16,1.21,1.41,1.75,2.17v3.92A16,16,0,0,0,375,224c0,1.16,1.21,1.41,1.75,2.18v3.92a15.12,15.12,0,0,0-1.75,1.74c0,1.16,1.21,1.41,1.75,2.17V238a15.12,15.12,0,0,0-1.75,1.74c0,1.16,1.21,1.41,1.75,2.18v3.91a16.06,16.06,0,0,0-1.75,1.75c0,1.16,1.21,1.41,1.75,2.17v3.92a17.84,17.84,0,0,0-1.75,1.73c0,1.17,1.21,1.42,1.75,2.19v3.91A17.84,17.84,0,0,0,375,263.2c0,1.17,1.21,1.42,1.75,2.19v3.92A17.84,17.84,0,0,0,375,271c0,1.17,1.21,1.42,1.75,2.19v3.91a17.84,17.84,0,0,0-1.75,1.73c0,1.17,1.21,1.42,1.75,2.19V285A18.91,18.91,0,0,0,375,286.7c0,1.18,1.21,1.43,1.75,2.19v3.92a17.84,17.84,0,0,0-1.75,1.73c0,1.17,1.21,1.42,1.75,2.19v3.92a17.72,17.72,0,0,0-1.75,1.72c0,1.18,1.21,1.43,1.75,2.19v3.92a17.84,17.84,0,0,0-1.75,1.73c0,1.17,1.21,1.42,1.75,2.19v3.91A19,19,0,0,0,375,318c0,1.18,1.21,1.43,1.75,2.19v3.92c-3.6,3.75-3.6,4.08,0,7.83v3.92a17.84,17.84,0,0,0-1.75,1.73c0,1.17,1.21,1.42,1.75,2.19v3.92a17.72,17.72,0,0,0-1.75,1.72c0,1.18,1.21,1.43,1.75,2.19v3.92A17.84,17.84,0,0,0,375,353.3c0,1.17,1.21,1.42,1.75,2.19v3.91a19,19,0,0,0-1.75,1.73c0,1.17,1.21,1.42,1.75,2.19v3.92A17.84,17.84,0,0,0,375,369c0,1.17,1.21,1.42,1.75,2.19v3.91A17.84,17.84,0,0,0,375,376.8c0,1.17,1.21,1.42,1.75,2.19v3.92a18.91,18.91,0,0,0-1.75,1.72c0,1.18,1.21,1.43,1.75,2.19v3.92a17.84,17.84,0,0,0-1.75,1.73c0,1.17,1.21,1.42,1.75,2.19v3.92A18.91,18.91,0,0,0,375,400.3c0,1.18,1.21,1.43,1.75,2.19v3.92a17.84,17.84,0,0,0-1.75,1.73c0,1.17,1.21,1.42,1.75,2.19v3.91A19,19,0,0,0,375,416c0,1.18,1.21,1.43,1.75,2.19v3.92a17.84,17.84,0,0,0-1.75,1.73c0,1.17,1.21,1.42,1.75,2.19v3.91a17.84,17.84,0,0,0-1.75,1.73c0,1.17,1.21,1.42,1.75,2.19v3.92a17.84,17.84,0,0,0-1.75,1.73c0,1.17,1.21,1.42,1.75,2.19v3.91a17.84,17.84,0,0,0-1.75,1.73c0,1.17,1.21,1.42,1.75,2.19v3.92a18.91,18.91,0,0,0-1.75,1.72c0,1.18,1.21,1.43,1.75,2.19v3.92A17.84,17.84,0,0,0,375,463c0,1.17,1.21,1.42,1.75,2.19v3.92a17.72,17.72,0,0,0-1.75,1.72c0,1.18,1.21,1.43,1.75,2.19v3.92a17.84,17.84,0,0,0-1.75,1.73c0,1.17,1.21,1.42,1.75,2.19v3.91a19,19,0,0,0-1.75,1.73c0,1.18,1.21,1.42,1.75,2.19v3.92a17.84,17.84,0,0,0-1.75,1.73c0,1.17,1.21,1.42,1.75,2.19v3.91H372.8a2.84,2.84,0,0,1-3.91,0,6.49,6.49,0,0,1-1.4-4.53,33.22,33.22,0,0,1-.18-5.37q0-162.21,0-324.4a41,41,0,0,1,.17-5.86A6.39,6.39,0,0,1,368.89,155.71Z"/><path class="cls-7" d="M192.76,508.26v-3.8c2.48-.27,5,0,7.5-.14.66,1.38.16,2.69.33,3.94Z"/><path class="cls-7" d="M28.38,508.26v-3.44c1.09-1.11,2.41,0,3.52-.63.71,1.52.22,2.82.39,4.07Z"/><path class="cls-7" d="M36.2,508.26v-3.44c1.1-1.11,2.41,0,3.53-.63.71,1.52.22,2.82.39,4.07Z"/><path class="cls-7" d="M44,508.26v-3.44c1.1-1.11,2.41,0,3.53-.63.71,1.52.22,2.82.39,4.07Z"/><path class="cls-7" d="M51.86,508.26v-3.44c1.1-1.11,2.41,0,3.52-.63.72,1.52.23,2.82.39,4.07Z"/><path class="cls-7" d="M59.69,508.26v-3.44c1.09-1.11,2.41,0,3.52-.63.72,1.52.22,2.82.39,4.07Z"/><path class="cls-7" d="M67.52,508.26v-3.44c1.09-1.11,2.41,0,3.52-.63.71,1.52.22,2.82.39,4.07Z"/><path class="cls-7" d="M75.34,508.26v-3.44c1.1-1.11,2.41,0,3.53-.63.71,1.52.22,2.82.39,4.07Z"/><path class="cls-7" d="M83.17,508.26v-3.44c1.1-1.11,2.41,0,3.53-.63.71,1.52.22,2.82.39,4.07Z"/><path class="cls-7" d="M91,508.26v-3.44c1.1-1.11,2.41,0,3.52-.63.72,1.52.23,2.82.39,4.07Z"/><path class="cls-7" d="M98.83,508.26v-3.44c1.09-1.11,2.41,0,3.52-.63.71,1.52.22,2.82.39,4.07Z"/><path class="cls-7" d="M106.66,508.26v-3.44c1.09-1.11,2.4,0,3.52-.63.71,1.52.22,2.82.39,4.07Z"/><path class="cls-7" d="M114.48,508.26v-3.44c1.1-1.11,2.41,0,3.53-.63.71,1.52.22,2.82.39,4.07Z"/><path class="cls-7" d="M122.31,508.26v-3.47c1.12-.81,2.37-.4,3.65-.33.59,1.25.1,2.55.26,3.8Z"/><path class="cls-7" d="M130.14,508.26v-3.47c1.12-.81,2.37-.4,3.65-.33.59,1.25.09,2.55.26,3.8Z"/><path class="cls-7" d="M138,508.26v-3.47c1.12-.81,2.37-.4,3.65-.33.58,1.25.09,2.55.26,3.8Z"/><path class="cls-7" d="M145.79,508.26v-3.47c1.13-.81,2.37-.4,3.66-.33.58,1.25.09,2.55.26,3.8Z"/><path class="cls-7" d="M153.62,508.26v-3.47c1.12-.81,2.37-.4,3.66-.33.58,1.25.09,2.55.26,3.8Z"/><path class="cls-7" d="M161.45,508.26v-3.47c1.12-.81,2.37-.4,3.65-.33.59,1.25.1,2.55.26,3.8Z"/><path class="cls-7" d="M169.28,508.26v-3.47c1.12-.81,2.37-.4,3.65-.33.59,1.25.09,2.55.26,3.8Z"/><path class="cls-7" d="M177.11,508.26v-3.47c1.12-.81,2.37-.4,3.65-.33.58,1.25.09,2.55.26,3.8Z"/><path class="cls-7" d="M184.93,508.26v-3.47c1.13-.81,2.37-.4,3.66-.33.58,1.25.09,2.55.26,3.8Z"/><path class="cls-7" d="M204.5,508.26v-3.47c1.13-.81,2.37-.4,3.66-.33.58,1.25.09,2.55.26,3.8Z"/><path class="cls-7" d="M212.33,508.26v-3.47c1.12-.81,2.37-.4,3.66-.33.58,1.25.09,2.55.26,3.8Z"/><path class="cls-7" d="M220.16,508.26v-3.47c1.12-.81,2.37-.4,3.65-.33.59,1.25.1,2.55.26,3.8Z"/><path class="cls-7" d="M228,508.26v-3.47c1.12-.81,2.37-.4,3.65-.33.59,1.25.09,2.55.26,3.8Z"/><path class="cls-7" d="M235.82,508.26v-3.47c1.12-.81,2.37-.4,3.65-.33.58,1.25.09,2.55.26,3.8Z"/><path class="cls-7" d="M243.64,508.26v-3.47c1.13-.81,2.37-.4,3.66-.33.58,1.25.09,2.55.26,3.8Z"/><path class="cls-7" d="M251.47,508.26v-3.47c1.12-.81,2.37-.4,3.65-.33.59,1.25.1,2.55.27,3.8Z"/><path class="cls-7" d="M259.3,508.26v-3.47c1.12-.81,2.37-.4,3.65-.33.59,1.25.1,2.55.26,3.8Z"/><path class="cls-7" d="M267.13,508.26v-3.47c1.12-.81,2.37-.4,3.65-.33.58,1.25.09,2.55.26,3.8Z"/><path class="cls-7" d="M275,508.26v-3.47c1.12-.81,2.37-.4,3.65-.33.58,1.25.09,2.55.26,3.8Z"/><path class="cls-7" d="M282.78,508.26v-3.47c1.12-.81,2.37-.4,3.66-.33.58,1.25.09,2.55.26,3.8Z"/><path class="cls-7" d="M290.61,508.26v-3.47c1.12-.81,2.37-.4,3.65-.33.59,1.25.1,2.55.26,3.8Z"/><path class="cls-7" d="M298.44,508.26v-3.47c1.12-.81,2.37-.4,3.65-.33.59,1.25.09,2.55.26,3.8Z"/><path class="cls-7" d="M306.27,508.26v-3.47c1.12-.81,2.37-.4,3.65-.33.58,1.25.09,2.55.26,3.8Z"/><path class="cls-7" d="M314.09,508.26v-3.47c1.13-.81,2.37-.4,3.66-.33.58,1.25.09,2.55.26,3.8Z"/><path class="cls-7" d="M321.92,508.26v-3.47c1.12-.81,2.37-.4,3.66-.33.58,1.25.09,2.55.26,3.8Z"/><path class="cls-7" d="M329.75,508.26v-3.47c1.12-.81,2.37-.4,3.65-.33.59,1.25.1,2.55.26,3.8Z"/><path class="cls-7" d="M337.58,508.26v-3.47c1.12-.81,2.37-.4,3.65-.33.59,1.25.09,2.55.26,3.8Z"/><path class="cls-7" d="M345.41,508.26v-3.47c1.12-.81,2.37-.4,3.65-.33.58,1.25.09,2.55.26,3.8Z"/><path class="cls-7" d="M353.23,508.26v-3.47c1.13-.81,2.37-.4,3.66-.33.58,1.25.09,2.55.26,3.8Z"/><path class="cls-7" d="M361.06,508.26v-3.47c1.12-.81,2.37-.4,3.66-.33.58,1.25.09,2.55.26,3.8Z"/><circle class="cls-2" cx="370.85" cy="502.38" r="2.77"/><path class="cls-7" d="M376.72,332h-3.79c-.27-2.47-.05-5-.14-7.5,1.38-.66,2.68-.16,3.93-.33Z"/><path class="cls-7" d="M376.72,163.54h-3.47c-.81-1.12-.39-2.37-.33-3.65,1.25-.59,2.55-.1,3.8-.26Z"/><path class="cls-7" d="M376.72,171.38h-3.47c-.81-1.13-.39-2.37-.33-3.66,1.25-.58,2.55-.09,3.8-.26Z"/><path class="cls-7" d="M376.72,179.21h-3.47c-.81-1.12-.39-2.37-.33-3.65,1.25-.59,2.55-.1,3.8-.26Z"/><path class="cls-7" d="M376.72,187.05h-3.47c-.81-1.13-.39-2.38-.33-3.66,1.25-.58,2.55-.09,3.8-.26Z"/><path class="cls-7" d="M376.72,194.88h-3.47c-.81-1.12-.39-2.37-.33-3.66,1.25-.58,2.55-.09,3.8-.26Z"/><path class="cls-7" d="M376.72,202.72h-3.47c-.81-1.13-.39-2.38-.33-3.66,1.25-.59,2.55-.09,3.8-.26Z"/><path class="cls-7" d="M376.72,210.55h-3.47c-.81-1.12-.39-2.37-.33-3.66,1.25-.58,2.55-.09,3.8-.26Z"/><path class="cls-7" d="M376.72,218.38h-3.47c-.81-1.12-.39-2.37-.33-3.65,1.25-.59,2.55-.09,3.8-.26Z"/><path class="cls-7" d="M376.72,226.22h-3.47c-.81-1.12-.39-2.37-.33-3.66,1.25-.58,2.55-.09,3.8-.26Z"/><path class="cls-7" d="M376.72,234.05h-3.47c-.81-1.12-.39-2.37-.33-3.65,1.25-.59,2.55-.1,3.8-.26Z"/><path class="cls-7" d="M376.72,241.89h-3.47c-.81-1.13-.39-2.37-.33-3.66,1.25-.58,2.55-.09,3.8-.26Z"/><path class="cls-7" d="M376.72,249.72h-3.47c-.81-1.12-.39-2.37-.33-3.65,1.25-.59,2.55-.1,3.8-.27Z"/><path class="cls-7" d="M376.72,257.56h-3.47c-.81-1.13-.39-2.38-.33-3.66,1.25-.58,2.55-.09,3.8-.26Z"/><path class="cls-7" d="M376.72,265.39h-3.47c-.81-1.12-.39-2.37-.33-3.66,1.25-.58,2.55-.09,3.8-.26Z"/><path class="cls-7" d="M376.72,273.23h-3.47c-.81-1.13-.39-2.38-.33-3.66,1.25-.59,2.55-.09,3.8-.26Z"/><path class="cls-7" d="M376.72,281.06h-3.47c-.81-1.12-.39-2.37-.33-3.66,1.25-.58,2.55-.09,3.8-.26Z"/><path class="cls-7" d="M376.72,288.89h-3.47c-.81-1.12-.39-2.37-.33-3.65,1.25-.59,2.55-.09,3.8-.26Z"/><path class="cls-7" d="M376.72,296.73h-3.47c-.81-1.12-.39-2.37-.33-3.66,1.25-.58,2.55-.09,3.8-.26Z"/><path class="cls-7" d="M376.72,304.56h-3.47c-.81-1.12-.39-2.37-.33-3.65,1.25-.59,2.55-.1,3.8-.26Z"/><path class="cls-7" d="M376.72,312.4h-3.47c-.81-1.13-.39-2.37-.33-3.66,1.25-.58,2.55-.09,3.8-.26Z"/><path class="cls-7" d="M376.72,320.23h-3.47c-.81-1.12-.39-2.37-.33-3.65,1.25-.59,2.55-.1,3.8-.27Z"/><path class="cls-7" d="M376.72,339.82h-3.47c-.81-1.13-.39-2.37-.33-3.66,1.25-.58,2.55-.09,3.8-.26Z"/><path class="cls-7" d="M376.72,347.65h-3.47c-.81-1.12-.39-2.37-.33-3.65,1.25-.59,2.55-.1,3.8-.26Z"/><path class="cls-7" d="M376.72,355.49h-3.47c-.81-1.13-.39-2.38-.33-3.66,1.25-.58,2.55-.09,3.8-.26Z"/><path class="cls-7" d="M376.72,363.32h-3.47c-.81-1.12-.39-2.37-.33-3.66,1.25-.58,2.55-.09,3.8-.26Z"/><path class="cls-7" d="M376.72,371.16h-3.47c-.81-1.13-.39-2.38-.33-3.66,1.25-.59,2.55-.09,3.8-.26Z"/><path class="cls-7" d="M376.72,379h-3.47c-.81-1.12-.39-2.37-.33-3.66,1.25-.58,2.55-.09,3.8-.26Z"/><path class="cls-7" d="M376.72,386.82h-3.47c-.81-1.12-.39-2.37-.33-3.65,1.25-.59,2.55-.09,3.8-.26Z"/><path class="cls-7" d="M376.72,394.66h-3.47c-.81-1.12-.39-2.37-.33-3.66,1.25-.58,2.55-.09,3.8-.26Z"/><path class="cls-7" d="M376.72,402.49h-3.47c-.81-1.12-.39-2.37-.33-3.65,1.25-.59,2.55-.1,3.8-.26Z"/><path class="cls-7" d="M376.72,410.33h-3.47c-.81-1.13-.39-2.37-.33-3.66,1.25-.58,2.55-.09,3.8-.26Z"/><path class="cls-7" d="M376.72,418.16h-3.47c-.81-1.12-.39-2.37-.33-3.65,1.25-.59,2.55-.1,3.8-.27Z"/><path class="cls-7" d="M376.72,426h-3.47c-.81-1.13-.39-2.38-.33-3.66,1.25-.58,2.55-.09,3.8-.26Z"/><path class="cls-7" d="M376.72,433.83h-3.47c-.81-1.12-.39-2.37-.33-3.66,1.25-.58,2.55-.09,3.8-.26Z"/><path class="cls-7" d="M376.72,441.67h-3.47c-.81-1.13-.39-2.38-.33-3.66,1.25-.59,2.55-.09,3.8-.26Z"/><path class="cls-7" d="M376.72,449.5h-3.47c-.81-1.12-.39-2.37-.33-3.66,1.25-.58,2.55-.09,3.8-.26Z"/><path class="cls-7" d="M376.72,457.33h-3.47c-.81-1.12-.39-2.37-.33-3.65,1.25-.59,2.55-.09,3.8-.26Z"/><path class="cls-7" d="M376.72,465.17h-3.47c-.81-1.12-.39-2.37-.33-3.66,1.25-.58,2.55-.09,3.8-.26Z"/><path class="cls-7" d="M376.72,473h-3.47c-.81-1.12-.39-2.37-.33-3.65,1.25-.59,2.55-.1,3.8-.26Z"/><path class="cls-7" d="M376.72,480.84h-3.47c-.81-1.13-.39-2.37-.33-3.66,1.25-.58,2.55-.09,3.8-.26Z"/><path class="cls-7" d="M376.72,488.67h-3.47c-.81-1.12-.39-2.37-.33-3.65,1.25-.59,2.55-.1,3.8-.27Z"/><path class="cls-7" d="M376.72,496.51h-3.47c-.81-1.13-.39-2.38-.33-3.66,1.25-.58,2.55-.09,3.8-.26Z"/><path class="cls-6" d="M122.51,84.05c-1.06-2.87,2.1-3.65,2.47-5.9,1.3,1.89,3.64,3,3.11,5.9Z"/><path class="cls-6" d="M153.86,86.17a3.77,3.77,0,0,1-3.42,2c-1.45.06-1.89-1-2.8-1.58.42-1.4,1-2.33,2.56-2.45A3.44,3.44,0,0,1,153.86,86.17Z"/><path class="cls-6" d="M244,86.21l-1.42,1.61c-1.09.62-2.22.22-3.33.29-.41-.66-1.37-.91-1.46-2-.1-.62.54-1.06,1-1.34C240.68,83.65,242.37,83.93,244,86.21Z"/><path class="cls-6" d="M165.23,86c.84-1,1.43-1.84,2.83-1.81a3.44,3.44,0,0,1,3.23,1.74c-.36,1.23-.9,2.17-2.5,2.27A3.08,3.08,0,0,1,165.23,86Z"/><path class="cls-6" d="M225.55,83.08c3.21-2.39,3.94-2.35,6.35,0Z"/><path class="cls-6" d="M269.89,87c-2,1.52-3.81,1.89-5.61-.24V82.68c1.8-2.13,3.6-1.76,5.61-.24Z"/><path class="cls-6" d="M24.46,496.51V159.63a3.24,3.24,0,0,1,4.22-.11,5.08,5.08,0,0,1,.85,1.69A34.57,34.57,0,0,1,30,169q0,159.24,0,318.49a34.51,34.51,0,0,1-.37,7.32,4.81,4.81,0,0,1-.81,1.71A3.22,3.22,0,0,1,24.46,496.51Z"/><path class="cls-2" d="M28.38,159.63H24.46v-3.92h3.92C29.35,157,29.56,158.32,28.38,159.63Z"/><path class="cls-2" d="M24.46,496.51h3.92c1.18,1.3,1,2.61,0,3.91H24.46Z"/><path class="cls-6" d="M28.38,159.63v-3.92H365a3.25,3.25,0,0,1,.09,4.23,5.12,5.12,0,0,1-1.7.85,32,32,0,0,1-7.31.42q-159.37,0-318.75,0C34.27,161.19,31.06,161.82,28.38,159.63Z"/><path class="cls-2" d="M365,159.63v-3.92h3.91v3.92C367.59,160.6,366.28,160.82,365,159.63Z"/><path class="cls-6" d="M28.38,500.42v-3.91c2.51-2.11,5.56-1.57,8.44-1.57q66.71,0,133.42,0H354.49a45.24,45.24,0,0,1,8.78.36,5.05,5.05,0,0,1,1.72.82,3.21,3.21,0,0,1,0,4.31Z"/><path class="cls-2" d="M365,500.42v-3.91c1.3-1.19,2.61-1,3.91,0v3.91Z"/><path class="cls-6" d="M368.89,496.51H365c-2.11-2.52-1.57-5.57-1.57-8.45q-.06-61.9,0-123.79,0-97.84,0-195.71c0-3-.63-6.25,1.57-8.93h3.91Z"/><ellipse class="cls-2" cx="196.68" cy="328.07" rx="238.01" ry="238.21"/><path class="cls-12" d="M40.12,163.54H353.23c2.2,2.69,1.57,5.91,1.57,9q.06,68.06,0,136.11,0,83.47,0,167c0,3.06.46,6.23-1.25,9.09-2.32,2.07-5.19,1.67-7.92,1.68-17.29.05-34.57,0-51.86,0q-122.05,0-244.11,0c-3.21,0-6.55.56-9.52-1.31-2.07-2.57-1.6-5.6-1.6-8.48q-.07-35.25,0-70.51,0-116.52,0-233C38.55,169.78,37.84,166.39,40.12,163.54Z"/><path class="cls-3" d="M40.12,163.54v320.7c4.28.78,295.26,1.11,313.11.34v-321h7.34c.74,4.36,1,312.2.32,328.89H32.78c-.79-4.29-1.13-308-.33-328.89Z"/></g></g></svg>